<mxfile host="65bd71144e">
    <diagram id="kYq98ek5PUZNAy_ZaTGZ" name="第 1 页">
        <mxGraphModel dx="2034" dy="1224" grid="1" gridSize="10" guides="1" tooltips="1" connect="1" arrows="1" fold="1" page="1" pageScale="1" pageWidth="827" pageHeight="1169" math="0" shadow="0">
            <root>
                <mxCell id="0"/>
                <mxCell id="1" parent="0"/>
                <mxCell id="3" value="" style="shape=image;verticalLabelPosition=bottom;labelBackgroundColor=default;verticalAlign=top;aspect=fixed;imageAspect=0;image=data:image/png,iVBORw0KGgoAAAANSUhEUgAAArAAAAKACAYAAABkPksbAAAgAElEQVR4nOzdf3SU9Z33/2d7WtZkJgiBZNTAACEBLBASilBclB8RMbuudvlxr2tZKnYRuE/aVUGh+sVz7uUrRUHqveUsKFux3tbaG3C3fruLFMMPZaVgGwLI+iMhyECAJCQBMpNY1tN+/7iumblmMjOZSWYyM8nrcQ5H55prPtcnM5PMaz7X+/O5vjJm3KQ/ISIiIiKSJr7q/Z/hziH069cvmX0REREREenUVzvfRUREREQkdSjAioiIiEhaUYAVERERkbTytcQfYiKD1iwkL8u/pWn349TtT/yRu87f59TvqyRfLvO2TGCo77aH469+wP4jHfdcu+F3zGcMtz5h73jnuHx+OesGjr35X6xviE/P/u7bE7nX6b/9+b5KVn0Un7YTYwDP/SCf4XzR5edh2vRv8P0JX/Drf6rl/3SnK9+9yMfT/4znH85me3faCW7z3joATv96Evf+LF4Ni4j0LQkPsPbyheTxMZ88uY3riT5Yp8xg2nKAE5vfTnZnelzu8tt5sMjW8Q53DW88cYY4ZaZA8yfwaKktbKBLWVNGsPihAm703g77HNmYuWECQ88f58VnIz+Di1edZv7wPHYuCBFegWmDbgC+oC4uL8QNrH7oG5RwgZ/80yUOhdplXD6/nEX3g16KGTHwBrjWzJlO9zSeo1Fn/ouHD37R8e6fDea304/z5CtAPELsnc0cubdOwVVEJA4SHGDv40YnNO1OhfAai0qa1lbSlOxuxFnDlg94EfCOGFKxl107k9ypVOQL3XvN0G1j5obbeXADHUPslFyG2z0c39lJ6vzuRZ6cBL/9yc2sCbNL9MErCuNuoaT/Fxx7M0x4xQzM8Tpe3Fxh1T9VduPxN5A3ALjyRdif27rvwP7Q2BQivALwdRY/PIZf7/iEZauy2P7c17vRL1g8tYX+rflsVXgVEem2xNbAFjrISOgBROItl3mluVw9cdwyYuxh/xPHOWcv4C+XB41gD+3vH6UNy82v763j2u+cLH4v3D4DGOcEz5krUQSvznU+mnsD00bcEGXQSydGKP285krnu47LZjhf0BLxu4ede3+dR/9JLrbfGa8+iohId/VADWw4oU/n28s3kT/wYz5Za4za2ss3kc8BTpwqpKgsz9yrnbptT9NUHdTkzBWWfaCt8nVq3qyEwiUULLmVTO8dWTMoen6Gbz9/nWtwvW6Y4wD9HniWMRMt8dwV4ueItt9hGSN/w2uP83n+BCbY4eqJD/h3JhilAOZpa6M0gI6n6c3T4NdiGWmdP4FHS2Hv8ouMsdR1Xj3xAdu3eDr0bYL1bLjlNPvYp2cze4j/rgkPzWbCQx338x8z19JQA3uXH+dUzH2i46n/UKf2g49n3Wf+zQzFw/HKoHZp4JPzMDvbBgTf14nvtjKSPHZGGsHLvYEcIo0GGoz6zhv8G1y1/M2/dQxrIwbeAK4LHUsDxuXzy1kD/Lf75/PLH/hvJqJGdtr0b/D9Ec385NUrTHvoG5T079j3gJ/r2gV+8mqYkePcm3jlgVsI/BphqZfNvYEcvuCzBrOEosOxgrYDJQ9M5JfeG6GObZYSfOuv3PBe6PIPERHpWQkIsB0nbWWWbWJQmXmj1R9Oo+acQdHAj/nkyRe47m3/gSW0WtrxBkrrpKt+D6xgUGElTdXbqHnS0rewNbCW0oGZKygqyw7ZHXv5JvKdddQ++QJuAO4j7/kZFK1xBP5sUfQ7GjcWTSC7Yi9v5NzOg/kT+MsrNbxYcTOPlhYwc0oD+7fUcG7LBIZPtMERf7jKnXgzN7pr+PeYywRymb3FOIW+64i3dnYCM6f4A/LYp29nAjW8sTx07eypZ/caAbSzGtgpI1g8+iIvLj9ubjCC8ewNI2gMOF3feZ+8wfTqiQ940Rts509g3vwGX4A3Hudh73Kzf+bxHn3a/DKQYwTUhnD1ugNs5JLLHQGTtoICelBoXjuuDlrzqQ3TpNGxTGx8wWcRRkw71rQaE55emW7UcHYIt4QKp7X8zUf4gmBjD0zqGjHwBriSyV/94BbYV2kcf1w+v5x1C6tzr7Cem/gravmbf/rC3J7NtNxLHAp6Lrw/3+f7Knn4I+s2y0hzbiY2YNRffIPG34U4VsMXrH/VKFH4u29P5N4BEcKyz9d579OBfGv0dRZD/CZ0iYhIlyUgwFpCoDny2d7dmfwBobeS1up5MLE//cDYVrgE58QM2ipfDzjO9TdfiH8da+ESbnJC025veAV4m7rdhQwqG05WIf4R1s76HS13De/vBJYDdvh8ZwMMvdmygzk6WFTAWLwjl7ncUWTj6omGLkzOCpxF31B5katFBWQPBcya0NwBwBVP9yd+HTnD9oCw6OFUrYcJRf3JAUv7nfXJOPXP+eOBo7I7j7PLd8N4Ts5VfOAf3cXD/iMNTCi9mbE00Bihq43NHhgA0MCu5XuNjZ1OUvtvhgyCa59mRQw+nZ3ynzY93wiv1rA1LpvhwOfmqO2hg//FoYNEF05zM7Fxhf0JX5HArEntPwDC9afhEqs6eyPl3sTDZni1thFcN/x3Bebo8pn/6iSYG/2KtmRj+6VMnpzUwp13ZrM9bBlIJP/NnaNbuPapUwFYRCQOklhCEEdD+pNJO3W/787kj1iOVcel4EC+v5qmshncMASIukQgSmZQNE56m6ODQwN3OfVuDZMfKmDMfDi1E/NUeAN7g0+xx4U39E3g0S10exWD4HID7zFiMsVGf+DcpxF6Ye5zY+lsHi3teLzcKUQMsDnZIVZw6NQfyMnqfK/IE7jMetX+t/D9H9zC933bv+DYm5Udl5rqdDS3JydwGTWpuGoDA6V3JDhMvzqMvt6aHSJwm3XDx70h1AzL1y7wimVVgdBfDjqbwBUv/832V47zrayB/PYnk5jSpfArIiLBekeAFTjSwOfzC5gwOhdoYOxo41T6qU4f2EU7j/PiTnw1pw9uKaBD7WoUjPAaOLrqrelNlHORaoKHegAbuVPgVMCIaldHnf+MxlbIibhPcBALkjuAUf2jr09NqQlcZm1vVJOqIvQrZE1v0Ai0N5QGP48hvxyYE7iOxfRiZnI+5gD6dRY/PAkjyP6Oj/8qzBrAIiISk95xJa7z12gjwxj97JFj5XHjzKDtMwsZRDtfnO+BPoRkjIoy5GbGksuYIQ0cTcjoa5AjZ9i+fC8vvlrDVXIZMz+WB5uh8HxN99eIPeLhGtA/J8IoaTT77LzIOWxGPbHVlFyG2zsZ4Q3p65xvgv6jW1ncyZ7xGg00wl5zhLVdzaDXkujRR3yjwZFn+nvF0q8BPDdrAFjbDjkRLnSpQKxr7i6+qQ1a/yxyHXNERh0tg653+j4QEZHOJTHAVvKHFmCgg37mFmNyVBeaqt7GJRcMKnuWQYX+zcYkrhDHdBbS5TGQ6t/T0gqDylZY2riPvLI8cB2JYYWBBNh5kXPkMnvLBIaev5i40ddQhvbnRjw0nwvafu4aV0MFQgA8NFzBnBhlCHuxhU418P4JDzcW3c48a4ieP8FyO8w+IduZwMwp3m02Zs4v4Mbzx7u0bu6aj/Igq4U7O1mGKWeQfwLW3317Is+N83bpCp9dg+GTbmJap0czR3MjhsAvaLkGtoE3RNjHMH3ZBtau28CqBQWd7htKdy7OMG36N/zPAYAzm78DjAlt+QyHwLbNut6PrKPU5uh18JeDQ01fADeQl0sUjPpVmvqpflVEJEUktYTAvfkATc/PYMzzmwBj2atPLs9jTGEnDwzZ1uN88sCzjFmyCe+iVW2Vr1NTHbzf69StWUi+eUywLqNlrCYwyLJ/nrc93zJZxiS1P5RvCmijrfJ1TrzZAzW4ERnh68EiOP5ux8TQIRx6a0FjrmENvnQqhL186pEzbB/an0dLbzfqZQk83qlnjzNmywSzBMG8r6I/D3aoUe1cw5YPeHH+BB611rieP86Lzwbu88by23kwuA7WsnKAb58IKwvE5GdZnL63LsIyTFf4/45/wfcnfINfTjC2eI7/l2+mPXzB+ldree4H+UE1sCHKCqJajusL1v/HBV55wLJKQZilq841tYIzC3vJPUzfsZmDUf/Q4CsJCLWcV0hX+MgF93qfB1ctf2Me8P/8Wy3jfpDPvT+YyL0YP/evCyZyL/6R5pB1veHqgT+qNR5vWUIrbInGdy8bNayv6tS/iEiq+MqYcZP+BDDcOYQLlxq4fj29rpklgXKX386D+RcTd2lY6ZrvXuTje9v47U9GRriYQRyMy+eXs27wr4vabaU8su4ehrYeY/uP3ujGKfR4M5YQyzke5jKwcePm1zs+Ied3E5jS3StxrTrNk6MH8nw8LksrItLH9Y4aWDHMn2CMvu5UeE05P7uZnZ+38K3vn07cFZ1yb+KVWQPAdSFO4RXyF/w5Q4Fzh5MYXnNv4pUffIPVltP9f/ftfIZzhf0JDa//zfZXPmFkaz5buxlewViKi6xa5n03Dl0TEenjNALbC/iXoQpzGl9SxtoNv2M+8Z2Jbr2AgSdeI5IFD7Lq4RLstHLilX9kR033m+weY8R1uO/2FX79T7VRliZ00Xcv8vH0P4vriOniVad5clILAKd/PYl7fxanhkVE+hgFWBERERFJKyohEBEREZG0ogArIiIiImlFAVZERERE0ooCrIiIiIikFQXYGEwvLUupduLdVjyP351+Jfpn6mr71scl+3nvSfF4vrrbVleOJSIivVdSr8Ql0ZteWsbBit0dth+s2B32vs7aCyfatrxtdOX4we1Eenw090fSnb5FarO7P3dfFOvzFstrH2nfWAKuXlMRkdSnABsl74djskJLIo4dqq3OPuiD749HfyL9bNH8zN77rfsGPy4Rr1tvCzqRXvtw98X6ZSfc7XDtBL83uvP+i2ZfjeSKiKSHtAywmSPu4DbHBT787Wnawu40ktum3kL94fdxhd0pOtYP0FQYeYvm1Gyi+hccChPRbjTb4y3anyXUfr0lyEYavezuz5joL149KXPEHdyWb7kQRUMlB0/WR/loB2NLJzLYd7ueUxWVXI5vF0VEer00DLAORuTbuXwiQngFBo8cRWZDZVzDq1csITaWGtFoRxoTGTS6I9IoW6yjvd0d8YtVtK9lpP18wSYo0AR84Qr3xSpzJLdNHUXbid2cagRv0MF3O7TB48sYSywBqnPd+YIU7j0Q7ncmlhH2eOnWl5CcidyWD2cO7+7i35Z6TpnHMt4vXWlDRETSL8Dm5DGY+ogf6uDAkQuXT3T9Qz34gzeYdXusH8DhPshj7V8ywmqkgGL9b6TTvl7hnpdYyjUiheZoX5/4ctNmM96j6Tyq1tWa40hlG6HKAbry2sSjfrurZxIG3+SAOHwxFhGR7kmzAGvHOdJBW+37EcNB5ohRDPZ8xocRQ25ooUJPZ6e3ExmUwo18xSsMxCpRdaVdHekO1594hqPYRrw91NfbGDHCzuUz7piP3xtF8yUDIofKaH4fE1+/aifTBngSfBgREelUegXYTAcOm5v6+kjBwM5gh522+vqIJQbhdCX0JDI4dvahniojsd1tK9pJPF1pw9tOtLpb59tWfwGKHGSecXfpPZgKElnfHGvZQLiShkRP0uuSnIlML3JYNnS1xtWO81t3MMJm2eT5rGPdf/DxYqrHFRFJX2kVYAePHEWm5zMuR0oFOaMYYXNzJmLI7VxnZQPB25Ml2ZPKunPscCPX3ak57ux4PfI8tZ3mjKeMETmnOyl1SV3dWbYseN9EL2OW6Ne1w6Qt20Sml3pvuDnjrWfOHMltN9VxsKLSvM8IoWO/NTLyhNMQBo+/gxF8xocV4R9n9MvDqYrdZkA2jjd9vEKsiPR+aRRgvXWtnUzeimONWrhRoETNxO+KZCzvFalWNdzp4VBiOTXfWaCKJvR293mKJTRdvlTP2Jsc0JieQaK77+vOasjj8UWwp973bWfe5+AZ8I2KesIExLbTfHjSusHN5Xo3I/JvJBNiCLDeUoVII/jeyazWcio3rtP1jChK/xpsEZHOpE2AzRwxqvPJW5kjGdHNyVuJEO0HeFfa7cryXon80I92Eles682GOkbwcWLpX1ePHbXGOi4XjcKZmZ5BoqsjsKGCa6TXq7sj+F0NsYn64jl4fBljc4O3xlo06w2i5khvqNKBTDuZQGZRGdNDPD4ztsQsIpJ20iTAmnWttcciT95y3EKm57OUO23bU6sQJGJEKprAEbwCQbBQ2zsbfY325+hspYNYR/qiqc2MbrJYPWdqRzHWYU/LANvVgBfrSHkswj3vsb7vE/XlzQivlpICurFUVmMlByvwLa92W+koQtXTXu5kmTURkd4qPQJsD0zeCqWzkaZYAla89ovl2PF+LCS23jfeoSQegSm4/ViCnW8yV4cTAnaybASOkNluJJN6zqRIGIlXDWxwm/FaKaInvrzFxjzt3/BZfJfYajvNhxWnfUHWkQOXG4E2o7wg026HRq12ISJ9T1oE2KguSpAzihG2ek7FcemiVFoBINqRyZSYid0FqRBKIi3d5L0/pvDVdpoznjtw2IO2NYxi7MiRZDZ6Tws7GFtk1G4nbrTWewWowBHCnhautCCcUO/7WEb6g9tKHDdtHsBmJxPjS7R/8lcc1t2y3Ugmbup9TdVzptbNbfl3MNatUVgR6XvSIMBGd1EC7+SteAWAaCYR9XR49R4z2g/iri5f1JMT0zoLM50FnnjV0lqPFc1obrTP0+VLHiOcWjLM5ZO7OTW+zDwtbGirfZ+DIb58De5Q4xgigOZaZ8X72/swoD0PrR4YbLMzYqQDV9AkpEhrtYYSblKj975Ir1XwaHY0k/m6877vbHuoPnbF5ZOVXC6d6H9dPZ/x4Ykbua3IspM5kprp22BnrHlM/2sWfLlZCPW6t515nw+5g9uC3yNaSktE+oCvjBk36U8Aw51DuHCpgevXrye7TwH8S8VECKcdLsOZOGm1nFOCjxmpzc6OF8soXHce012xhKyUZ64Z2jHcxl+oSXy94jkUEZGUkOIB1li2xlEf+QM34FrzPdg7kfThXRi/qwvri4iIpI4UD7Ai0l2+WsxQyzGJiIikoTSogRWR7vAvxC8iItI7fDXZHRARERERiYUCrIiIiIikFQVYEREREUkrCrAiIiIiklYUYEVEREQkrSjAioiIiEhaUYAVERERkbSidWCT6c6fMnV2Nq5X/5q608nujHTFw+Nf49sO/+3aE4t4tCF5/REREekLFGC7auYKisqyqdv2NE3Vye5MvDzO6LVlZIe938Wna75Hcw/2KC3U7+a+k79Idi9ERET6DAVYsdjEp2s2+W5lP7KX0ezm8MubIjxGREREpGepBlZERERE0krajMDayzeR7/Teag9x6v4+8p6fwSDC7FO4hIIlw2nZtgseWEhelrnddYATm9+2tDORQWss9wO0fswna7dxvUM/IG/JJvJC7Be9ZtpPB566b696iapdOy37zCdv1VKcdv+WjvtAxrx/pbjYshPujvW1IzdQ/FAxGb5dqqh67gnao+6v2Rc6Ps44frNZZmDsl1PzEp/yHUu/QpQhRNWnEOUN5zQ6LCIi0helQYD1Bso6ap98Abd3W/kS+lWbYbFwCQVLboXK1znxZiUA/R54ljFLNnHD7sep2+9tK4O8JQtp2v04J/Zj1rHOIG/m27597OULyeNjPnkydBB1b36cExDHGlgno9dm43p1Np+expzY9R3yqnb6gmf2I9+BnbM57A2id/6UqbOXMrpxJ5++599WXAyuV2eHnxDmmzQ229L2XopXbYghxO6k7nAZztkFZI/Ecqz5ZBfYaa/6eUA4zSheSrG7iqo1T9BuhtrR1uNF1af55K0qI1uBVUREREiDEoJ+D8wjL6udum3e8ApQSdNmf8C0z7mVzNaPcZnhFeD6m7uoa4VBY+8LaK/JGmj3V9MEZDgmmhsm8mcDgZb6GEdRuyNolPS93bjcdnKK5/v2aH45aBT1vVM0Axk5/n0ycrIxRnPDHWc+eVOdtFf9PKCt5ooq2u1GGI3ae6doxo6z9HH/tjvLcNrdNFYFjgoHjqbupO6wC3zHi7ZPTux2aG9yxdDJUHJ4ecZM3gn5bwrrM7vZvIiIiPSIlB+B7Tc4A1o/pjXsKKcROtuqfx8UOitprZ4HhQ76QZSBtJKmQzPJK5tB0fMzulgS0F07aW9ZSsYgS51C8Cl2k3XEtH3X+zQXlzF67V5Clg6YITCjeClTi5d2OKo9D4h6Ka9NuKruILt4LEZshuwxTji3u+Pob8vFwJHdumbacZrHi7ZPxvGKvft1eSS2kUcO7O98NxEREUlpKR9ge9z+F4zyArMsYczzmwBr+UKizSdjINBi3vSG14DQZtSDBgZa7woCZo3qQ3txAs17Z/vLDAhdO9sV7VU1tBcXk3MnNL/3ODlD3bhejTZUunHXxdan9l1/zeFdmCUHZUxdW9aF+l0RERHpDVI+wF6/3A7O/hFGUSv5Q8tCMgu/ST8qLftMJKswo+vlANXbqHkSX5C9cSa4e2TwzjxdXmOeLs/LJgM3ropow+FO6p7bSZ03yI55HN7bBLhwuyHbOrLbHaefwHVuL6PHPA6MJfvc+0YNb2fyssnwlTp0oU/vfY/D72EG2eA63M7k8PKMcYQ+WhtVR4+wui36roiIiEhypHwN7PU3j9BEHvlrltDPt9WcxGXecp+qg6xbcT4w0beHr3Z2z9t0y5D+ZNLOF+eDtp+/RhsZDPzmxJAP66rsR8rIxoXLOyJZ10w7duN0OtD5xQa8gutGzfrToWUUz5sf8ZHRav7EaG/qbCfNn0QRsEduoHi2k/aq3eZEr673qfOa31CMEoJ7Qv5TeBUREUkXKT8CC29T9+R5vliz0DydD94lsnwjq/tf4MT5JRQsWUjRxIXmxq6c9g9eist/rA4rDVRvo2b3CorKLMeMtWbWrAf1nu4HjNPiayynxU8/wadV/0rx7L1MnW1sat77Eq6pS8mxNJX9yF5GDw1svsOp+fe+x2GMFQwCak67eir+vd24phpLarneC7PPUPN0P96+B5Y0RNWnkDXAuiqYiIhIX/WVMeMm/QlguHMIFy41cP16z05ZknTmX+u1Yw2rWcLQ0ruXvnp4/Gt8G11KVkREpCelfAmBpK7sR4zR10/jMClMREREJFppUEIgqcVSg6tVAAyOMt52GGUStScW8WhDkvsjIiLSy6mEQERERETSikoIRERERCStKMCKiIiISFpJ6QA7aPBgvvY1lemKiIiIiF9KB1gRERERkWAKsCIiIiKSVhRgRURERCSt9KkC0wVLp7FsvA33yUPcf8zBrxYVYndXs3V1LTuS2jMH2zcX48TDsdcOsfJooo9Tz+7yKlg9h7Ih4Nq3h8VvJeqYIiIiIvHVp0ZgdzS6AWhu9MBRD83daWxuMRWbp7Fxcly61kPcNLkB9zXOAmdbPMnukIiIiEjM+tQIbEhXPEkefQWoZ3H5niQd20PT+SQdWkRERKQL+tQIbCBzNLIP845Ii4iIiKSTlL6U7KDBg7l65QpffvllDx7Vxsb10yixWzZZ6mRXmnWjIVnraecWUzELdpdXc5O1vfNVlK6vN294a1K9jNrUjdY2J+fzq0W3UP3aMZgbrh1DuL65Tx7i/pdULiAiIiK9g0oIgqxcPY0SqtlaHnpi18b1e4yAObeYiln2TiZdOSjb7MB98hClL3nMMFrM9rneSVP+0gFjglm4dmyULJqGa98eSt/yHtvajje8WgLw5Hx+tagQFF5FRESkl+nDJQSh2LhpAHGti3Xt2+MPkObEsewcW5fa8a0U8NZFXAHtmP0+f9E/enu0nmo32Afag5sSERERSWsKsAE8rDxaD0OKqdg8h4r1+SzoZnuBE6SMEdf4j4h6uHQFGHIzK72bJjsotIPrs/oIjxMRERFJPyohCPZWlXGa3jwFv2xzIctC1aammLMtHhjioGzzHMrMbe6Th7S+q4iIiPQ6CrDhHK3l/qO1viA7di6QsmHQwV+Mt+mCBCIiItInqISgM0P6Yw+1Vur5a7ixUVgSez1ronSltjasggdZtW4Da9eVMz1+rYqIiIh0m0ZgAwQvawWEu7zr0VruH9KfilnTqNhsbov1srTm6K5/mpXNVwIQ29JX9SzeVx/YF6+uXiq3pp4WwM4wvrWggIM7amJtQURERCQhtA5sb2AG4ebgEoJuLqWVv+AZFpdkce43T/Dygfh1V0RERKQ7VELQGwzpT8jFssztzY1dWfWglLtKsqD1GO8qvIqIiEgKUQlBb/BWFVtzprFs1hwqZlnv8HDstT0RLrQQ2vRlG7jLCbjeYc3Wijh2VERERKT7VEIgIiIiImlFJQQiIiIiklYUYEVEREQkrSjAioiIiEhaUYAVERERkbSiACsiIiIiaUUBVkRERETSigKsiIiIiKSVPnUhgwVLp7FsvA33yUPcf8zBrxYVYndXs3V1LTuS0aG5xVTMsnPstUMxX2ygaxxs31yMk3p2l1fB6jmUDQFX8CVoRURERFJYnxqB3dHoBsxLqx710Jzk/vQ8N01uwH2Ns8DZlq5cYlZEREQkufpUgA3piic5o68pw0PT+WT3QURERCR6fTjAmqORfZh3RFpEREQknXxlzLhJfwIY7hzChUsNXL9+Pdl98hk0eDBXr1zhyy+/7JkDTs7nV4tuofq1YzB3GiV2c/v5KkrX15s3bGxcP42SK9ZtsHL1HMoGmPW0c4upmAW790HZLAdQz+7yi4zdXIwTj7/m1buf7z6D++Qh7n8p8PT+SrNe1Su4bnXB0mksG3GBras9/EUnbYmIiIiksz48AhuOjZJF0xh0dA+l5Xso3VcPQ4rZPjfWdhyUTb7G1vIqXNi5Y30hTa8d4pjbRsksR+B+mwtpes1/PPv4EjZO9vdn4/o5lFFl3F++h9LXqsmeNadjn+yFLNtcDPvCtSUiIiKS/hRgQwgY3XzrIi4gO8cWeztHvasb2LBfqQ6z0oAncGGHUKAAACAASURBVBWCt6o55rZRWGIeb24hJfZ6dltGezlay/vnwTnKEaItS9/PX8ONjUFDEBEREek1+tQyWj0rcHKUuyXaelMPl65AyUA74GFBjh2wUbZ5DmXBu7ptLADLJDQ3l6wh+Wgt9x+t7UrnRURERFKWAmzKsXHTAOCKdZuxbuvGJPVIREREJJWohCDl2Blk94/YGisF2LlJdawiIiIigAJsFxin+BlgnL6HjisEdMfK1caVst73rhxg1sSWLCpmZXwOEZ2CB1m1bgNr15UzvSePKyIiItIJlRB0wcb1VYzdXMyyzYUsw1iqamtLCctGxNjQ+Wu4cVCyaA4Vi8xt7mq2llsvbeth5epDbFw/rUMdbEIvAVtTTwtgZxjfWlDAwR01CTqQiIiISGy0DqyElb/gGRaXZHHuN0/w8oFk90ZERETEoBICCaOUu0qyoPUY7yq8ioiISApRCYF0MH3ZBu5yAq53WLO1ItndEREREQmgACsdHNz6BAeT3QkRERGRMFRCICIiIiJpRQFWRERERNKKAqyIiIiIpBUFWBERERFJKwqwIiIiIpJWFGBFREREJK0owIqIiIhIWulT68AuWDqNZeNtuE8e4v5jDn61qBC7u5qtq2vZATA5n18tKqR53x4Wv9UTPXKwfXMxTt/tenaXV7GxJw4dwcrVcygbAq59e1hMMRWzHHC+itL19UnumYiIiEgfG4Hd0egGoLnRA0c9NCe5P1DP4vI9lJbvYetJT7I743O2xQN4aDoPnL+GO9kdEhEREbHoUwE2pCseY/RVInK3KMaKiIhIaujDAdZNkzJZ51JipFpERETEr0/VwPJWFaW+2lYPK1fvCbGTh6bzNjaun0aJ3dwUov7TW0/rE6pGdK5ZP+plrbeNkbcu1csVok63Q5+Cjrdy9RzKqKL0s5st/fJw7LVDrDzqf9iOlw5Z+miUOYiIiIikij48AhuOjZJF0xh01KhNLX2tGveQYrbP9e+xcvUclo13s9usXy0tr8I1pJiK9fksMPdZsHQaFbPsHHvNu88hjlHIss3FrIyxPxvXm8Gz3N+n7FlzAvrE3GIWcsy/T3kVLnshy1Y7ApsbUkzF5Gts9fbJbaNkrr/fIiIiIqlOATaEgNHNo7W8fx6co8wgODmfO4aAa591tYB6Fu+rB/stTJkM4OAvxttwnzxmGdn0sPKtatw4GGsNnp2ZW0iJvZ7d1tHd4D4BvFXF/S9ZJ4LVc+o8MMAWGE4DRmU9HDnjAXt/hsXQJREREZFk6lslBF10tsUDI4wguGNIf+zU837wMltvXcQ1q5hBQwBsZOOh+ljQygJH66meW0hhjg2IbtWBBTl2wEbZ5jmUBd/pNvuEccyAsgffPlEdRkRERCRtKMBGYdhAW+c7JVRn68N6w2vgfitXz6FsQM/0UERERKSnqISgUzZuGoB/ua3z10KXAcy9Gad37dSjHpqxUVgSFHwnOyi0m+vQRslYu9bOTZMj7WVnkB3cJ6uTfhEEERERkURTgO3EgqUllNg9HNtn1qAerafaDc5Z1slYDrbPcsD5arPm1ag/tY8vYaMveNrYONe48td/xHKVr7eqjYlWiyJN/jKWBLMP9NcPBK9akBilPLJuA2vXPcOCgkQfS0RERMSgEgKrox6aF4Fz1hwqZnk3Bp++N5bfWrl6TkBdqvvkIUotk6g2rt/D2aXTWLZoDhWLzI3BS22Zl671x05/rav75CFzUpaHlasPsXH9tA51sP7JZsYEsV8tKqZis/9YW08WsmxEHJ6XsM7S0gpDs7IouquUHTUViTyYiIiICABfGTNu0p8AhjuHcOFSA9evX092n3wGDR7M1StX+PLLL5PdFQlnRjlr7x6G+9hLPLejJtm9ERERkT5AJQTSDQUsmDoMOMtvFV5FRESkh6iEQLokf8EzLC7JgtZjbH/qDWqT3SERERHpM1RCICIiIiJpRSUEIiIiIpJWFGBFREREJK0owIqIiIhIWlGAFREREZG0ogArIiIiImlFAVZERERE0ooCrIiIiIiklT51IYMFS6exbLwN98lD3H/Mwa8WFWJ3V7N1dS07ktGhucVUzLJz7LVDrDzavaa8P5uX++Qh7n/JE7SXg+2bi3FSz+7yKlg9h7Ih4Nq3h8Vvde/4IiIiIj2lT43A7mh0A9Dc6IGjHpqT3J942vHSIUrL91BaXoUr7F5umtyA+xpngbMtwQFXREREJPX1qQAb0hVPckZfU4aHpvPJ7oOIiIhI9PpwgDVHI/sw74i0iIiISDrpUzWwvFVFqa/W08PK1XtC7GRj4/pplNgtmyx1skatKR3rVifn86tFhTTv28NiiqmYBbv3QdksB1DP7vKLjN1cjBNP0GPdXDrqrU01t3SoX+3Yp67VrQb9zAHPh4iIiEh66MMjsKGtXD2NEqrZWr7HrCndQ6llkteOl6pxYaOwxBbwuAUlt2B3V/MfvkDooGzyNbaWV+HCzh3rC2l67RDH3DZKZjksj3RQtrmQptfMY+2rxz6+hI2T/fdv3zyNkitV/v7sq8c5aw6/WhrYBxEREZG+QAE2gI2bBtBJXWw9p86DfXwhK33bHPzFeBvuM/UBj3Md9QZfG/Yr1WFWGggakX2rmmNuf0BesLTQWDVgfb3/IW9Vsfs82Ec4WNCln1NEREQkfSnABvCw8mg9DCmmYvMcKtbnhwyIG/dV48bB2Lnmhrk346Se9wNO+wdOjnK3RFtv6uHSFbAPNOoFhg20wfmLbAzuw2f1YO/PsChbFREREektFGCDvWWeqn+tGre9kGWb51Cxudgy2gocrafaDc5RRinAylEO3CerO4TMrjFHgUVEREQkJAXYcI7Wcr83yFpHWwH/SO3NrMTB2CHBo6/dYWeQ3T9ie7bFYx4n0MpRDt96riIiIiJ9iQJsZ4b0xx5qrdS3LuLCQdnmYpwhTvF31crVxQHlCDuOXcCNg7LVlolfc4uNK2gdTeAVxAoeZNW6DaxdV870RB1DREREpAv61jJanQpczsoQvOyVVz3/cdJjLKm1rz74zuicv4YbByWL5lCxyNzmrmZruSWYHq3l/qMetm8upmKztU97Avq00rwsrM/4aeb+xmVjYw7YNfW0AHaG8a0FBRzcURNrCyIiIiIJ8ZUx4yb9CWC4cwgXLjVw/fr1ZPfJZ9DgwVy9coUvv/wy2V0JacHSaSwbccG3Rmxvk7/gGRaXZHHuN0/w8oFk90ZERETEoBKCrppbbIy+vtU7wyuUcldJFrQe412FVxEREUkhKiGIkf9UfbjSgvQ3fdkG7nICrndYs7Ui2d0RERERCaASAhERERFJKyohEBEREZG0ogArIiIiImlFAVZERERE0ooCrIiIiIikFQVYEREREUkrCrAiIiIiklYUYEVEREQkrfSpCxksWDqNZeNtuE8e4v5jDn61qBC7u7rHLgVrHN/N7vIqNnapBRsb10+jxO7f4tq3h8VvBR/DBuerKF1f380ex8LB9s3FZJ88xP0veYxNk/Mtz3E9U9ZPo8Teey8AISIiIj2jTwXYHY1ulmGjudEDRz00LwJ75w9LGStXT6OEaraWp8nla73P8RUPO/Aw7Arp9YSLiIhISupTATakK570CIM4GDsEXPsih9cdLx1K8Z/HzSWNvoqIiEg39OEaWDdN7mT3IQaTbWQnuw/ddLbFk+wuiIiISC/Qt0Zg36qi1Fcv6mHl6j2B95s1m80BdaXBtZ1GHWrhmUO8TolRbwpAfcfaVm8NaMBBglNzcF1r12pEfbWv3qNYa1FNK1fPoYwqSj+7mYpZjgjHi65PK1fPoWxI4LbAn66exeX+5zj1R4dFREQkHfStABtH9vHTWHa+itLyerwht2y1g43eiVNzi6mY5cC1bw/3m2HYCJnWVvzhuNQbNucWU7FoGhs5xMqjHSdt2WfNoWKWecMyAc0fDs02w3V8SDEVA6rZWl7FDm9QnZvPgqO1gY8P2yfwBdyAetxOjisiIiISJwqwXRUwy7+eU+fBOcDGAjCC4WQHnK8KWCEg2IKlhTjd1Wy1jpS+Vc2xydMoLLHBUcsoccjR4S4IWHXBw5EzHkrG92dYDH1ibqG5mkCaTCYTERGRXkUBNiHsDLKD62jkZayGDbSBvZBlmwtZFnznQDvQ8zWj0fRpQY4d3Bc4oslYIiIikgQKsMnWg+vQRi0V+yQiIiJi6sOrECRedo4t4PawgYG3z7Z4wO4/fZ8Kou5T8D69YJUEERERSQ8KsFZHPTRjDZ7GxCRnzA0ZNbH28YWsNLeEmrG/46VqXDgoW5/Pgu70O46i6dOOYxdw4+COpebzFHK1hdjkL3iGtes2sHZZaTdaERERkb5AJQQB6lm8r56KWdOo2Aze5aOa5k6jMMaWNq4/xE3rp1G2eQ5lGMtalX5W6F9BwHu88iq2by4OqjmNfSmtDgF5vPdnCLG8V0RR9OloLfcP6W95nurZXW78vLE+T161jc1AFjj/nAUFFeyo6WJDIiIi0ut9Zcy4SX8CGO4cwoVLDVy/fj3ZffIZNHgwV69c4csvv0x2VyThCljww6UUZZ3l3ac2czDZ3REREZGUpRICSQ0z7qEoC9zH3lF4FRERkYhUQiBJVsoj6+5hKHDuN0/w8oFk90dERERSnQKsJFkFLz9VkexOiIiISBpRCYGIiIiIpBUFWBERERFJKyldQtB0+XKyuyAiIiIiKUYjsCIiIiKSVhRgRURERCStKMCKiIiISFpJ6RpYr+kjtrJiZKbvtuf0Fv72zOEk9khEREREkiUtAuzBM8s4eAZgKs9MXc6tye6QiIiIiCSNSghEREREJK0owIqIiIhIWkmLEoLozeTxH9/NCFz8+rEt7El2d0REREQk7jQCKyIiIiJppZeNwO5n02P7k90JEREREUkgjcCKiIiISFpRgBURERGRtKIAKyIiIiJppZfVwHpXIWjld1vX8bNPk90fEREREYm3XjYC66LpGkAWoyaNTHZnRERERCQBelmAPc3P3ncluxMiIiIikkC9LMCO5Lt3OAEX7/38dLI7IyIiIiIJkBY1sNNHbGXFyEzfbU+IfeY8+iPuHQZcq+Inj/2Sz3qsdyIiIiLSk74yZtykPwEMdw7hwqUGrl+/nuw+iYiIiIiE1ctKCERERESkt1OAFREREZG0ogArIiIiImlFAVZERERE0ooCrIiIiIikFQVYEREREUkrCrAiIiIiklYUYEVEREQkrSjAioiIiEhaUYAVERERkbSiACsiIiIiaUUBVkRERETSigKsiIiIiKQVBVgRERERSSsKsCIiIiKSVhRgRURERCStKMCKiIiISFpRgBURERGRtKIAKyIiIiJpRQFWRERERNKKAqyIiIiIpBUFWBERERFJKwqwIiIiIpJWFGBFREREJK0owIqIiIhIWlGAFREREZG0ogArIiIiImlFAVZERERE0ooCrIhILzRv2BTemTyMeZF2yhzGzhlTWJ/ZU70SEYkPBVgRERERSStfS3YHojZ4HO+My4G2WrYdPcuusDvm8PKMcTh9t9uoOnqE1W1dPG7uWt4ugn97dw2vmJuyH9nL6IFVVD33BO1dbFa6Ipd5WyYwFA/HX/2A/UcSdJj5E3i0NNd/+/xxXny2IU6NGz9D/xMfsH2LJ05thrOQ63//D1yv/d/Y972e4GP1pEzWT55CsWXU0PXRfh65HOXDZ5Sz9u5hlge/w5qtFd3sUwELfriUoiz/lnO/eYKXD0TfwpfzP+SL5nR7rUp5ZN09DPXdPsu7T23mYDdbzV/wDItLLE9mXF6jPmTmCorK8vy3XQc4sfntoJ3uI+/5GQzy3a6j9skXcAe3ZVvBL6YOYK/lM1C6ayKD1iwkz/IWb9r9OHX7o3x4VK9v75c+ATYqmayfPA5n40fcc6qx+83ZVvCLomHUnliU0r+4GfP+leJie9j726teomrXzh7sUZrbeZwXdwLYmLnhdiYkuz9d9OX8f8DDh9wYIhA9NnYmc2ydfRlMTY+NnUIxtWw70MW+H9jMmgPgC51x6NP0ZUsp4hjbn3qD2lA7zChn7d3ZnHjlH9lRE7qNr73/ISz8B9yQRiG2gpefMoKlETrj0OSMchaXwIlXngj9XBU8yKqHS2iJ8QtCn7L/BU7sB19QCrnT29Q9+TZ1QL8HnmXMxDBteV5gb/1rfPuutZBCITad/4bZyxeSx8d88uQ2rnelgahe394vfQLs5Y+4p7M/Vpk5FGS2UfVRHMIrf8uLUyfA6S08Gq/BtwRp3/XXHPb+Bo/cQPFDBTS++tfUnU5qtxKggV3L9ya7E2nhj7P20TrsDFkv/M9eVieUw6054PoolT60ShnthHO/CRNeo1X/P7Hv/b+0zH6Y66dep199vPqXXqaPGQaud8IGfel5r5zcwhD7cr49/m955eQvkt2dNHcfNzqhaXcXw6v49K7Ptswswo9Dxubh8WXke46z9czhOLUo0kMc/0xbSRYZe/9HGn1DjVJmJtnJ7kOwAgcD49XWif9B1tksPH/1z/wxXm2mlQJy4/ZkSvwc5h9PHMfjKOPF3M73lggKHWQkuw+9ROp/vnlrX73iVR4Q0d9S5IDaEy+Er+VquUj7nT9l6mxvta0bV4dRz8cZvbYs4AO3ee9sPn0v8j6c283hlzcFHC77kb2M9heahWinE2Zfwx0/w1tmcOdPmTobPl1zihxLv0KVIUTTp47lDaGep854a1+9Gti7/DinrLtMGcHih27m81ePw/zbmeA9ZMj6VbM0wNetEO11Zv4EHi21BdbiThnB4ocKuFaxF+tTNfbp2cweEvjwqyHb66TuNngf4FzQsQD+OHYM/331QzJPBB8kuD48nyUz8lli3nKfOcL8s23MGzaFJSPoWDueOYydk/NpNutNHxs7kzl8xD31DsvvaKia8+Ca1Wj2ibGuNSGC61pbI5YAhDJ92Qbu8j/hFD28wV+y0HqM7T/qOGr7tfc/5OsLb+N6EdzQ4TVMX8HPRaw1wsF1sfa7N7D2bu+t+NTeJlXhEgqWDKdl2y54wFIfGVDfaJ4ybgmsebSXbyJ/4Md8sjaBo3reUoKRK5jeEOGzMZzB43hnHOw5UIvD+rve4TM90t+L6P6G+drwBLYdXHYwb9gUljguse1oG3Ms7frbieXvXPwYJR2WmNva1dc2uM6ZkPWy9vJN5Ft+N8PV4476zlN8f1IW1373Lzz98+Sf4k39AOsrHTDfkB12CH5DQ/HkmbzjvdGVwJv7DfJp43eR5tgMLWPqwCqq1nyPdswwN38Dzb6JXfPJWzWWxjWz+dR8SMa8f6V49r+SV+cNcPPJW1VGdojA6jefvFVLcbbs5vAac5+RGyh+aC+jiSHEvrcb19SlOMc8Du9ZjnXnWLJx8WlACnIyeq0Rdg+/hxlqlzK6cad5vCj7dOdPKS4G16uzu1nO4C8dyF1+Ow+GLVq0MeGh2zlXsdeoYZ0/gUdLJzBvvjXkmWHYXcMby8/Q4N32dC6n4jZRy98fo4Y26FhbJtDfspfxM3nYu3yvGaKNxz36tCXEThnB4tLckIE10EK+zM+CKxdCnF5p5JEDxl+lSPVju87WMmfEOApyMuGs/y/0vJybsLfV8gtrqMwZxzs5jew5sJ8fe9udPI7HDnzEj40deHnGOLLPHOEeb1uDx/HO5CmsD/5QavyIe442+vcZN5OdZ44w/ywdwq19nOV3vNOJnV1hTE4aeOwl1ngT64xy1j78DLzyj+yo6ThpKyBQmeH04NYnjA/6KGpgfeo/oN/V27g+eCGQLrWwkZjPVcs7rDHrZY061g08ghFiO0zayrqHtevuMW+YXxx2/CNrdtDLa2AzyFuykKbdjxs1jjNXUFQ2g7yZb0c/wSeBXqk/y7cdAxgJXfyykMOcGTm4vX8PMoexc/I4Xh7s/bLa2d+L6P6GxSQznyUzjC/M91w2jzduPOsbLQE1Zxzv2GrZduAjdnmzyLhhzIv62B0nbWWWbWJQmXnDGlBnrsDJLk48WWneaYTQMeX3xThRayKD1sxgUMQJXpYvRE+a+xQuoWDJJvKIYVJZkqR+gO2U/w1tvPFs3f5mNN2WA55qDkYKsO7AVQiaK6pof6iA7JGYYW0ndc8FJo32qhrai4ux5wGnAZzY7dBe4wp/nDvLcNpdfPqcJXSefgLXub2MDg6jEe2kueY7OIvvIG/kJn+AnuqEc7tpDto7YDQ1OPxG2aeMnGygmfYe/KIWEPB2XuRcaS79c2yA8WKOfXoCQ2lg7xPeQAnQwK5nE9CZ+QVMsHs4/qr1WMFyuaPIxrmKDywjwB72H2lgQunNjKXB2D60Pzfi4fNznR10OH+8ETKO/r/d6HgjHzfCnBH5PHbWH0TnjMjEfaYx6A92I3t8YRV+fKaWP8/J59bBwGWYNywfZ1st2yxBmMu1VLVN8QXkecPycdLIHusXzcsfsadxJnMcOcw7e5bVR83f8aBR4ETJX/DnDG09xnZr2jzwDiemLiW/pABqatjxoyfYAQkIVK/z1Sv/wH/n384f972e/nVeM+6hKOss7/7IsopAzRv81lXCXWNK4UAFtd5wag27iVx1IPjMnpXvC1HHwRHLTubnTMczB1ZdOYsQMPq1v5qmsjwyHBOBykgP6xmeK3iYQFEuRPijFlHAc9LWRjOQbcuEy21R/b2Iv6DR1LZW3OSQnQn4tlmDchsf1rdRPCIrzHsjlEqa1lbSBGZAvJX2cKsO7H+BwO+4b3PVNYNBAx30gxhGYYdwQxa0VZ8Pv8vMmeRl1VG71hJwq7dxybWJ/LH3Ubc/MPh+9vN1fP/nUXcg4XpBgI2/kfYurOp9+iLtWMMpvtP2wfxLb23CVXUHxcVLmVq8NGTpgBEC7YxeG2LykvtmMgLai6x91/s0F5eRUzyfutM7YeQUcuxuXDuDQ7Abd5319k7aW5bCQON4RNkn7/GM/bpSOhBvNnIHAOcvxlYu0EW5OTZwX+RUpOW+ptjoD9xYOptHS4Pv9JA7BePxO2s4PuV2Jjw0mwkPhS4dAMBxC1/S/V/s4CDKYIcRMoM/QNpaCfj6FfSB5LRnmiMc/tN8PnYbYO7TWOsLwb4+1DcyZ1wsHxLxM3RQFmSVsHhdiGn1g4YBmmEUrfycbCCLu9Zt4K7gO1sd5EP3Jr91RTSTgq2DI2G1+b9cSRTaaA74ExL4HEfz9yL+PNRbm207y/wDZxNwnGh1HK0FoDXWdt6msXIKYyYupGjiwpClA/0c2UAG+c+HGAhrjTUw9zwF2BBOu9uIeTbYyKAwaYbXgNrRkRsofiiwCMK3gsCdP2Xq7DKmri3rMLoLLj5d870Oo6Sx20TjuTJGF0whg51QXEDGufejD5UtF2kHswA9mj5t4tM1m/CVHDy0FyddqN/tAzovDfCw/4m97MesqTUD79Xg9WTrL8Tnl7qtkZq2fIodOXC5kcccxmm/4JAZTrPH8omQkFP8PSBMjWqPCVkGkq56QY2qmNpoTuQS1un69yIuvOE1cE1eo8Y59tauv/k0J97EV4pS9PyMEPW0Ydb/TQMKsCEc9DSywlbIdBuRywis8rLJwE2jOXJpjJy6cEW7/up737PUm/pLEdobm4FsMkbiH9ntBn+pw3woIMToayjzyRjoL3WIvU9GOUWdN8jGVPoQTx4argADbHTjDFhs7P3JsR7LHHH1OeLh2kMElDl05tSzRq3s2KdnMzs/l1ysJQqf89Wr4Bn1/3DDie6UEbSxuraRd8Y5eAy4NaeR/zwVxehHZibZtFFj7upyt0FO5FFUl7sNRjh4jMaAgPyYw7hwSYQCm4Q519QKzmyGkoTRQRbyxwHw9drPe/zIiVBr/r3ILSB1Bq5TuIQgpdkGYKOR8wkKsNH8vejdzNP+lfvjGyi968bOXEFR2XCyCqGpGq7XG7+bf1YI7up4HrBn9J4v+PHU8F/UksmtuVOjfMDjjJ7tBMtoZkDIA9/oa2fLZ3SoG31vNy63HedDP43P8kGnj9DotuN8aClOamiOIoBmP7IUp90SxrvcJ7Pmt6ljJMlf8Axr121g7Q8fJD+mNmNz6t0artoLePBp62x+YxJXTM5d4yo2sr1LI5grENxo2aWh8iJXyWXyclvYfaCB9094uLHodubNj6UDZjnEFU9QEH+dr9W2wrAivozwaJe7DTJv4rZI1TKX63GRY8zObayPYvQ1h5cn52NvrPXVk+06W2u0MXkY88I8alfjJdzkMGesJVAMHsecHHDVJmckpnbHf3KOYdwVr/fj+WbcZBn1s51x3M71G+Frl3vDBC6M2uHWLIoeLmd6PNqrqacFGDqmQ81N9C5/xD0H9of+5xv9M05vh97PWzNplBCEayv+4bWSP7QAZj0kdJxBnkgPO4aB50o8xlJCiubvhVfkv2Ft1HsAW6avncfGzmROmO8sqeM8X7RC5mD/sjXxfH2NkoFm/uANq/v3U9eaQd6SFVGddB71naf4yY9/xE8enRmfDnVTyo/AGkv6WN6hmeN4ZwYkdhmLX3Civoxvj/wLHj5zuMOVR9qb3DC0mGJLDWh71Uscto62vvc9Ph2zl9HmaXOjBnQ39ofK/PuEDLXBp+Z3UvccsGpph5rTrp2K30nd4TKcs500Hw53KVy773S/0fUqqtZY942uT8HLbEH4q4INHRRc8GPRIfjZmL1lNrMJcQq9M0fOsP2Ih3lbJvDoFu9GYxktL2NVAJv/MXbvvpZL2B45w79PvJkHfbWrRhtjtliu23XkDNuH9ufR0tvNxzewd/kH5G64neGWLjVs+YA3lt9uactkWUqrQ5+C7rf66qlP+HrJbXwxa2HYKzrtOnsEp30mcywrdliXjjE0sudMm7Gk1pkwK3lkdlzG5p6gNh458BEvzxgXVNdm+f1tO8v8A228PMP7u+29f39Cfr/Dz3i3LpNVwctPwSPr7gmqg419KS0Aat7gud9ks/bupaz1NhemROHLO24L8U5LwwAAIABJREFUswxaCjInsPk//Py1ru5jL/Hcjhqghh0/egl+uLRDHWysS2kZKnj5FQerHrauVNB3ShTcmw/Q9PwMxph1i22Vr/PJ5XmMKfTv02EZpizz9DHt1G17mqZqfJOJ/J+ueb5ayLbK16l5M2jSmG0FsztbXrLbovh7Yersb9iPT33ErZZ23GeOsM09niWOhHU+DippevObDFzifb0A1wE+qZwSh9cXOpYLVNK0FlizsEMdbKiltD6rbwGyYNgY5rCfPd3+ebvnK2PGTfoTwHDnEC5cauD69VQu2e1Jf8uLd5XhOL2Fv+1tFzPwrfUaoob1zp8ydXZ2Cky4ku7446x9XC25TNYL3buYgX+dxI4joel8KceUVfR/aZk9GNvrs7p9Ja5Ir51P5jB2Tr6JmgSuaSm9wVSembqcSe7d3KcrcfVhI/nu//p7JvV38evHtiQ9wKqEIKxf8OiJs9hGLucXI6ItJUgDIzdQPNtJ8954TAqTVPXVfa9guzqC1hX/N2IpQUSDxxmjryl12dZezPHPuGeP4OvHXumzl5GV1PTw+OVMsp3l3xRe+7a77mZSf7j2u98kPbxCGpQQJFXDGu47sZa3i0KXEqQT6xWxtApAX/A6/f4F+Pt/iFhKEIq/ViyxV5uRQF/ecRsc+98xvVYiCWdbwWzHWf7t3TVp/Rko3TD6b3h2WTH9gTP//kM2vZvsDhlUQiAiIiIiaUUlBCIiIiKSVhRgRURERCStKMCKiIiISFpRgBURERGRtKIAKyIiIiJpRQFWRERERNKKAqyIiIiIpJXUv5DBzBUUleX5b7sOcGLz28nrD8CMctbePcx/2/UOa7ZWdLPRUh5Zdw9Dfbe7eM31bgvuRypcY/xxRq8tI9t32xX6Mrgxsl7cAYBzuzn88qbwDxAREZGUkPoBdv8LnNgPMJFBaxaS19n+nbCXbyJ/4Md8snYbXb5kw4HNrDkAUMCCHy6lqJt9Mtq5h6ERgvD0ZRu4a+Axtv/oDWoD7jEDZ5jH5i94hsUlzTGE0ApefqrC8tgYf5SE2MSna4xgaYTOODR5508pLgbXq7OpOx3i/pEbKH6omPa+fNWymSsoKsumbtvTNFUnuzMiIiJ+KiFIBQWTyc9q5cS7XRnFreBTF+C8lekdG+abBVng+jjJI6ipJ3uME869Hzq8ioiISEpTgE0FQ7Kxd75XWAc/OQsMY/SMoDsKJpOfBec+6W55Q28zn4yBye6DiIiIdFXqlxBEzSwxyPLebrec+ryPvOdnMMi3762Med5f69hW+To1b1bGv0sFD7Lq4RJ/OG0NVQIQSXA9agmL1/nP6buPvcRzO2rgwMecu3sYQ8eUwgF/WM0vKcDOWX57wNJkcP1uStS4xk/2I3sZ7X/CaI6xBCC4LjZj9l6mzvbeik/tbVfYyzeRzwFOnCq01IS3B53eN97n7H6cRsezjJmYYW6vo/bJF3D7Wgv+XYGm3Y9Tt99yLKf/vrwlm/ylO61B5TfBNerB9yfAqO88xfcnZXHtd//C0z/XELqISF/USwKs8cGdUfk6J7xBdOYKipY8C9uepqn6beqefJs64lQDG40Z5ay9O5sTrzzhm4g1fdkGFv8QM8QGh1MoeniDv57WrGn11qOGr4EFo4zgHoY6b2U6FWYY9ZYP/Kc/nBY8yKoxH7Pmqc3eDSz44VLu+uGDnIspWKei+eStWoqzZTeHzXpZo451L6MxQmyHSVv2MqauLTNvuHG9+tfU7fprDu8iNWtgnTMoctZR++TjuDHfy0tW8IeAcAqDyjYxqPVjPnlyG9fNsJpffp85+dH8Muc6wIm15mTImSsoKttEhsP4Iufe/DgnfNvD18D2e+BZxkyEum2Pm/cbxxrz/IqgwCwiIhJfvSLA9ntgivGBbR1F3b+fumkLGfjNiTRVJ2B0NaICFkwdhvvYSwGrCBx89xjferiAbxZAbY0/nPrDbtdXHTj4yVnuchplBAcP4C8fOGwpH6h5g+cC2q/h9zWtFJVkMxTiHGBzeHnGOJwh72uj6ugRVrfF8XB3luG0u/j0OcsqAqefwHVuL6PHPA7vbaLdG06tYTetVh0IHEl17/mYtiW3cuNMcO+37BawUkclf2hZCAMd9AN4YAqDqKPWupLH/heoHbuJ/MJv0o/KKL/Y3UfOxAzaKl+3hNtKmt78JgND9SmOPvv5Or7/88S0LSIi6aF3BNjBGZAVWBbgM3gI0NMBdhgDs8BespS1IWbxDxwCxHt5rKAygpDlA5gjuR1SZSJOijfyyIEEJZgQMnKyATuj1+7teKf7ZjKA9h7rTYK0XgsMl9X1tHMrGY6JWN/jbZfPBzzMN6IK2AdngKu6w+io+1QdlPWnH0QXYAsdZNBOy++Dfreqf09L660MDOqTiIhIPPWKAAv0SO1drHw1qj3CLCMY6CA/VPkA3vAauL5s6iyVFQ/Jq1FNpvZ6BUUREelbekWAvX65HZwxjB4l3FlaWmHooGHEf6g1vIOfnOWuuwv45gw6lg9QQO5AwPWfPXRxhJ4tIWhvbAayyRgJ9JV5Pd5R0POd7+p1/XI7TCzEDgGjsPaxedD6cfS/P+bob4cSncJvMjBLoVpERBKrVyyjdf3NIzSRR/6aJUadX6R9L7dD1nCyChPZoxp2HD4LzntYtaAgLi2ea2qFLKN+NqwDH3OOLIruLsHOWT4NKB+ooaEFGOgg39xijL5mdWwnLowSgntC/otz/SvAe7txue04H/qp5Ypd3XD6Iu1A9pjHI+9X8CCr1m1g7bpniNNLHaX7yFtyK5muIzFdZOD67z+njTzyy+/zb5y5gnwnNB0KOoNx/hptZDDwmxNDtPQ2V12QOXEeg3y/SxMZ9MCtZLZ+TGMCq0dGfecpfvLjH/GTR2cm7iAiIpLSvjJm3KQ/AQx3DuHCpQauX0+NMUwvY6ZzRoh7Qi8hNCjiPobgZYJiXUYrfPALuvxrhyWrCL2UVpSTuILrV0OVKPj2CXllrqCVD1qPsf1wNovvxr+UVvDSXxY9WxJhYa4IEPJdUPUSVbt2mrfMyVlBne+4lFaUk7g6HDdEiYLvNU7spX+D37MQ6n3rX40j8vs5+Hcl9O8J0OkyWR1+P3viUs93Lecnf+kEXPz6sS3sSezRREQkBaV8gBWRHlz+LS2M5Lv/6++Z1F8BVkSkr+oVJQT/P3v3HlT1feD//9n+EhpuWkCkWRQUjxVXikBUavtthAgGZr9r2xG3Scq00cZLdsxsoqMmGvKbhqqJjCSdZJpEU5N2rOusOt1129F6WTDdjdUkoFRXU4/HcpRURCDmHKAh/tLfH+fC51y4Hzh84PWYyUzO+dzeEIwv3uf1eX9EZAwpWMSccfDJ+0cVXkVExqhRcROXyEjTffXFoMNJR2RM0GqEYScadm3m0xCObbgEqz0EaLsD0b38b8hTW5jxPbaszmIccPW3z1B5PFQjFRERs1GFQERERERMRRUCERERETEVBVgRERERMRUFWBERERExFQVYERERETEVBVgRERERMRUFWBERERExFQVYERERETGVkf8gA/9nsQ/Hs9ZDKW8N5YtSwVHLW9v2Yuvv8ZZH2Lg8m9aj69lZPRQDHAgLS59ZRWas57WDut3Ps98azjH1T+SSX5OVFQPXDnNqZ2X/T3D/z5lfGI/97e/ScCX04xMREZHujfwZ2Kod1G1YS92GPTQ4Bn+6mDWVZJatIGLwpxp58tZQvvU5llr8N1hY+kwF5c88Qlq/juuOlf3b1lO2aT1lR+sHM+IxIX7lMeZvrOjliVsjUP46MrdvIWH6YE+UQ0JZJZlrFodiVCIiIiaYgTW76lcpC/vMqZUPrA4ysy3cZwGb30zpgnTXDPEHJppBHayOg9/l1MFwj0JEREQGYuTPwEpI2GqtOIklLdt/mnUhM1LAaT3T/3qDiIiISBiMohnYHBLKSkn29jI7aNi1mebLAItJ3p5HgnffmaRv7+o9ttfswbqvpu+XyltD+SI4vukIE41dUPsRyl4/YdgntesY4zYjd8c1JmBDPcc3vcpJABy0XvftnTpr3+BFd+l0weoKClK6jsxcXkGm54Wne2s9g82RTaZlHmlYu8Jq3kwm46Cu1jj9upCVW4uYbHjn2ojq4AZTQvLGVSRa3+BsUzHzCz3fEKdPT9XbfXXrOPsGZw8eCDib/35ePp3ZFjqurGVGeTHxnneOFfLhOwC+70MWWeXHer1ud2LWVJJGNXUXphs64cafcfD8nHN4LU1JW0jP8ZQWGrBt2IHTezb/PyvQfHgtDVWGaxl+npJXVOJtoTsucql8F52e1/4ddeP26SuwrJhJlGdbbB6Z2/P8rukeC37nBSIe2kJ6Tot77K794i7vwc6SHr62IGPqrjdf8Div/EMK1B/liZerAreLiMiINUoCrOsv7siaPdR5gmj+OjJXbIFdm2m+fIiGDYdowP2Xc1zgX5b9l0rB1lU4a9+gbL/VHUSLWJl3whX0vNUBd/AMdgp3eMVzDjxh1BheAWLJXL6Ka0fXu86Zt4byRatY2eQKlSdfX+/aN28N5Yviu7mhKniNILA+YGHpMzP5cNN6drrfSVv6HMsWPcfS6yP/Rq3IrFXMx86HZYW04OqfziipoOXF9XRgrA64AmawXqorvIL97UJ38HWH0YAbvlKYUR6P/e1CPrziPq7w1yQ3fJeGK5V8WObaN37lMWbEneWsewwDlpJHZkoDtg1rceL+WV6xjk/9AlxCcSUJjotc2rCLTnfwS1uz2B3i3L/M2aupK3eHuvx1ZBZXEpnk+kXO+epa6rzvx/uF5C6ugAkNu9a6t7uulb59nStUXt6FdUPX+8mtwYJkDc3/nU9y8RRip2O4Tg6x0yNpr6ny+dqickpJ9//aylZ4/zx3hd617uNc+2SuwVw3f4qISI9GRYUg4qFcEhwXsRtnUauqaHBEEndfzpBd99rR9d5ZUKyNtAJxiX2+EwomxRODA5th9vPkpXognol+p/GZAa2+yLX+XotgNYJg9QEr+7cZw3PXcXGT+nW5PojihXn5HMkL/s/OCQM4pfMsZ8t+RIv7ZUezE2Li+3UDVWRCDDittHhXF6ik6RoQd6/feXxndzvOWukghphkhojvbKPzdxdpJ5nx+X672aup8/6CVsOnrUBcEhG4/6zQgM0Y5qp2YLND1PT7+nFz42IScyJprzloCJ01NO/rZkw9qbpMM5EkP2i4ySs/n+TYDlo/8PtkxGcGuIbm/26AWFf49Yyp+bAx0Lv3SZke+CnH8dd44qlnNPsqImJCo2IGNmJCJMT61gK8JkwC+lEP6DMHrdeNr0+wc1OQikBPrrfgJNUVKK3uGdihvKHKv0YQtD5AYP3BrTXkA2rn6TMhDg+tf/GZ5RzIzVodzU6YbCF+Gt4Z2MTJ0HH29OBmUAfL8YnvpwaXG+lgJpFJORh/xttv+fxgds2oAjETIsF+2fcjd8B5oQGKxxEBfftkYnoSkQQJmJc/oNUxkzi/MfXsEE01uSTkuEKmE4iZlQz26sCZ39ZG3/Fd/4R2krlnEkASkUBUcSUJxf7X6OBL08EZZCZZRETMZ1QEWCCwm2cG7lnbydmrKM/2vFnP8U0DWC+2bxd01wjimQxMDhaW3eHV2LH1Vh3GiI6mFiCFlEeP4a2CXjvMqX50VodTR+NQ/II2vDo/+DPtOTMZnw/OqsWMT+mgYVdfP/Lv4K+GzG7s84qIyOg0KgJs560OSOnH7NEIkbb0m0we6AMOBshWa8WZnc2MvIWQAs5a39UH0hLjgXr+MCxl1yhemJdLVlTwrfbzVay8NQzD8FFC8vyUft9kFRaeWdDrve/q0XmrAwwznR4xs5LBcbHvf37cs79x9+XQfNkQoKffR1zsAEL15V3csFeSNmsxDUwnwX6aur7Mlk4aRxQt3LgMEHxGWkRERp9R0YHt3HeaZpJJ68MDCjpvdRg6cyNAbLzP3f6Dcr2lm6WyDKxnsDlg8qIiJvv1bwFsTS34dHC7XSUhFFwVgqLq4P8Mf3jtEpmQ0vtOfeTq4boqCT1ZsLqC8q0VlK9e2IezLiZ5xUyi7KeD3mDVnc4P/kw7yaQZHyqQv460FGj+711BPp7vrkd+iNt2iMpZYnjQQQ4JD80kynGRJp8ZUHcPN1gP1cB5ocF1o1pxMs0X+jD7On0FluJkw41eh2iq6SAqp5TkvnRwCx7nlZe28cqPv8dX+7C7iIiMHCN+BtZ1V7Hh1hnvUjzGJYQO0bAB2J7n14P1X2YIOvdtxjahkjTD0kD9XkarD9KWPseybMM6RbFFlG8twvjYVdv+vdRZVlGwtYICv+MHtGyVdS8vHo2nfJGhkhAww+upEcSCwxrYta1+lePpFRR4l+JyULf7CHHLiww7BS6z5V26q7vlwkaI+JXHmGEceNYq5metAux8WPYjWjhAw4FcEh8tZn65f5HSs0//dBz8Lh8mHGOGoZIQOMNrYWJcLyeKDVz+ra6/P7eXd2Hd4FqJoGtJqw7DSgJ++x5eR2ZxKZk5pa73DFUd56trufTQFtKNy2x1s2SV89U9NJSVkmYYf8BH/VVVNPwf15JaTd1VAFKCLcXVtblz32YusYV0/x5ssHFda+ETUhg3bhrzZ8CfPuzmmiIiMuJ8IT1jzt8ApqRM4qMbN+nsNNOH8Oa2YHUFBXGBFYLgS2nJ8HAvrxUQMLtbSmt4hG75t5Gsa63XwF8oe1qKa+AefHIb/zfVwfuvb+UXCrAiIqYxKioE5tTdjJv7fUcL14Z5RAJM818qy/f9jmb7MA9o7IhZ45p9tYf405Buzfge96cC9acUXkVETGbEVwhGLyv7tx0hbmsRy7b63eE/wj+GH9WurOfssZ8zv9BTLejS9ZQtCR3DU/KGbSWRfNa+tIipwCfvv8kTv7rS6xEiIjKyqEIgIiIiIqaiCoGIiIiImIoCrIiIiIiYigKsiIiIiJiKAqyIiIiImIoCrIiIiIiYigKsiIiIiJiKAqyIiIiImIoCrIiIiIiYigKsiIiIiJiKAqyIiIiImIoCrIiIiIiYigKsiIiIiJiKAqyIiIiImIoCrIiIiIiYigKsiIiIiJiKAqyIiIiImIoCrIiIiIiYigKsiIiIiJiKAqyIiIiImIoCrIiIiIiYigKsiIiIiJiKAqyIiIiImIoCrIiIiIiYigKsiIiIiJiKAqyIiIiImIoCrIiIiIiYigKsiIiIiJiKAqyIiIiImIoCrIiIiIiYyl3hHkBITMjgSEY0Z8+c5un23naO4oV5uWRFgf18FStvBd/m0t7Hc4bKfJ6b/zgzb7zGw1dPDddFByZ6Hf86/8scO17G7pCeczbRQNsVE3wPREREJCxGR4ANmXaePlPl+ld3KB5Oy7/2OHM4x44gwS1mTSVpcRe5VL6LzmEdVTfadnCs8Zd8p6AcQhJiH+bl+bPhymssVnAVERGRHozBAGsIqSPIgqmv852kev79+A5OhnswfbT7j68xKeZxvvO1h9n9x38d3Mkm/j1p1PPvCq8iIiLSC3VgR4LodayeFoWtLoQfxw+LUzxfd462pGJenhjusYiIiMhYMaJnYJek5rIi6Qa7ztRz0H/jhAyOZMDvqs/zEgBtNLYnsjMvgxT3Lr4d1xD3WydkcCQjset103mKLjQN6FQLJk4nuu0cv77pv2UxydvzSPC+nkn69krvq/aaPVj31QAQ8dAW0qf/mUvljSQajjHuE6yGEPHQFtJzWrBt2IHTe+YcEspKSY71vO6gYddmmi8HGbynSjBtHQtummf2WERERMxrRAdYAKJivYHUaEl0NLTfwO59J5EH86I5e6aKle3u8JuRywvekBq6fuuS1FxWTG3jd9VV7vDsCsdHZg0kxM5nwVeiwPlRkPB3iIYNh2igjx3Y2Jmkb59J8+G11FUB+evILF5Cwgc1wcNnUK7QHFmzhzp38CV/HZkrtkA3IXZ3Yz3fSfoy00ABVkRERIbciK4QHGxrM7xKZGdePjsnuF6lxERBW7thZtZ3RvVg0w2cRBEfRYgl8uDUKOznPTO/rms/bWuCxCSe6vf5phAfDbbGQXZIAddM6VoaPBXf65/QTiT3TOr7GSIeyiXBcRG7J7wCVFXR4Igk7r6c4Ae1fUwbqWQOokawPCkVGv/XZBUKERERCYeRPQPb7sDJV0iKAqKSXDOxSYlwyzXL6XS29XT00IiKIh6IycjnSMDGdtdY+1NLiP47koDGkAyuhU+NM6SXd2Hd0L8zREyIdM/kVgZunDAJqAl8fxCWf+2XfCcJbHU/YHFAhUJEREQk0AgPsO20uGdRl0RHYz9/HjKSeIo2kqLBUNocdoFryA5Q20c0MjsEJwohx0CW62qnZQC/T+z+4w/Y/UdXkD007Rw7TqlHKyIiIj0b0RUCaKOlHSCKuUltXLzVxMWmRGZOiCY+Clrahu0JA13a22kB4qND1U34My1tkJb0cIjONzidtzogdhwR/Tko+stE08T1QUyI726sh2hXj1ZERESkJyM8wLbT2AbxaV8jq62Rl4CXGptISUsjnnZ3uB1uTfzuajsxU3O9fdzBOcXJG+2Q9Pcs72EvV7CcQuz0gV/JP5y6ViCI9N1n32maSSatbEWfQ+zypFRo+5grAx+aiIiISJ+N7AoBYHe282BiFHab++7+W43YMzJIoYnGfgVY3yW2ALLmuXus3iWw+rIPHKw/DeSywr8HO8CltE7evMzqabMpnDqf3d0s5N+5bzO2CZWkragk2f2ecYmsvujcd5CG6aWkefqt9mrqDk8ns9i41yEaNgDb8/x6sN0spRW9jsIksNXpo38REREZHl9Iz5jzN4ApKZP46MZNOjtHxINKx5wFU19n3bQm/j0kj2UdLvN5bv7jzHEeZvGgn8RVzqFMTPb1i4iISDiM8ArB2HHy6i94vy2V7xSU91glGEmWf+1x5kTX8++DDa/gXYqrcOr8wZ9LRERERjUF2BHjFM+feo3320wS4qLXUZhUH7oZ07YdPFxXT/S0xzlU8Ev+1QzfAxEREQkLVQhERERExFQ0AysiIiIipqIAKyIiIiKmogArIiIiIqYyogNswoQJ3HXXiF+qVkRERESG0YgOsCIiIiIi/hRgRURERMRUFGBFRERExFTGYME0ihfm5ZIVBfbzVay81ft+Hj3v34ukn+EsTSdizwNENHreXMjKrUVM9u5Uz/FNr3JygJfwSFv6HMuyY7vesB+h7PUTgzzr4MfhrH2DF/dbh30cI13EQ1tIz4n0vm6v2YN1X43vTvnryCxO7nptr6bu1UOBJ8v8N1rn3WL8m/8cut9OM/+N1sKpAEQem8s9daE6sYiIyMCMwQDbN0/NyiULG7uq6zk46LM9y19L50LtTw3hFeAEOze5gqUr7A36QpC3hmXZULd7PUGzouURNi7PpvXoenZW+27yjKFu9/NBjnWF7bh+hFDb/ucp2284tv9fzZjQuW8zdfsAFpO8PY/IYDtV7aCuCiCHhLJSkoPtA1B3iOh5/8Ltx34WmhCb9DOchVMVXEVEZEQZgxWCdp4+U0VRdU+zqYnMTAS7LRThtZTOx75NR/1/EPNfewZ9tt4sSE8F+/8ED6+9sNVacRJLWrYlcGPeTCbjwFarGdSRbQ8Rb/4HkePn0v5A6aDP9vmsdD67/R4RCq8iIjKCjMEA2wdRUcSH6FSfP7CctvFXiT3wkxCdsScWJg5mmtN6BpsDYizzSPPbtCA9FRxWPlB+NYGfcM+xq3yWvZzOpHCPRUREJPTGUIXAv9Paztkzp3m6fSivWcqdtFjurt096G/0gtUVFKR0vb4WpALQE/8+asyiCsoXeV55urdWPrA6yMy2cJ8FbN6wupAZKeCsPYPNewYLS59ZRaahajumOq7568gsBtuGy4zfnkeC+22f/ur0FVhWzKTj8FoaqjwHumsCwXquoeSuErR961kihuWXJxERkeEzhgKsqzoAwIQMjmRE+20PvGkrJiOfI97Dbew6089KQdI36BwPd90aTHXAHRRbj1Dm7su6eqwVrMQVYgNu2ootonxrkfuFw9Vp9fRRe+jAgrtGkJ3tqhFY3WHUXR+oM9QHFqx+BPavp8zzVt4ayhetYmVT/4K1uSWTtj2ehl1rqbvsuRlrCQkf1NB8Odxj28NdtuWQ9nd8jj5qERGR0WUMBdjeGAJuVCoH5qXRMphVBwCSJvAZVwd380teEZmx9RzfZlhFwLqXP9izKUhfCNUnDDdLGcLuQFcdsJ7B5sgm0zKPNKzY8NQHan3qAydff973uOqLXFuUSlyiBQjtLOyS1FxWTI0KvrHpPEUXmty/lCQG38f7y0ciO/MySAm+0wBm5Dto2LXZG1Y7P/gz7TkzuWcSEPYAC1+8dQuy07mThN/Ng33l/gTB9q4CsIiIjCgKsEPo8wkTgMEkYEhLjAdiKdhaQYH/RkcSaWD4WD8U/GsEweoDeGdyY/yOdoZ0LC4H609zsL6XnW6dp6jXmd8mVlZX9baTUErnY/9C23gH0XvmEjOg8CsiIjJ0FGCH0BdvDS68dgnN+rB95akRxE0CJgXWB7zh1Wd9WS2VNTLd4ov9DqB7iHhzDxGU0vnYe7R+/B/EqUcrIiIjiALsUGq8xd3M5U4m3DXAGoGtqQWIZ2LoP5nvnqdGkL6QBQTWB5gUTwwO6o4Pz8MRRm6FYGT7fMIEuH1pEB//q0crIiIjkwLsUGp8l4jbc2n76rPcUzfAGazqI9TNX0Xm8jXcDMUsrLWRVmCyuz/bzU7uGkERBQSpD1xvwUmqa4bWCsYniqlCYHC5kQ5mEpmUA9TgWYEgARj6nOzqr/LxRwqeIiIy6oyhABs4+5Y1z73KgGcWL+TcM1jZD9CZ9JPAG2kCeqRdXdeuJams7N/2BjyzKqAH29+ltFxOsHN3EhuXG1cqCKwoeGoEMcEeXmDdy/5aC8sMS3FdO/oGdfNX+awf67/0F9mrKM8X5+eQAAAgAElEQVQOfr3R6RANh6eTWVxKZk4prpu+9tDwUKlP1SJmTSVpxu9Tjmf/BmwbduAk8HGzxOaRuT0P/xvJvDIXuzqs/6mP/kVEZPT5QnrGnL8BTEmZxEc3btLZ2RnuMXklTJjA7Y8/5s6dO+EeyiC4b4hRj1CGzbP8dd23uVP700E//e3zB/6L22mXQvNYWhERkRDR30lDbg8R//ked6d+m9aSZ8M9GBn13I8uvv0eUSF4dPEXb92C8XPpzAzB0EREREJEAXY4NP4zMXve4+7UB/RoTxlamYtp473QzZjW/RPjax10FL5H67r3+KuCrIiIjACqEIiIiIiIqWgGVkRERERMRQFWRERERExFAVZERERETEUBVkRERERMRQFWRERERExFAVZERERETEUBVkRERERM5a5wD0DMLoeEslKSY7veaT68loaqPh6ev47M4uSu1/Zq6l49FNIRioiIyOiiABt2UbwwL5estvMUXWgK92D6LWZNKclc5NKGXQzoERhVO6irAm8QDu3wREREZBRShUAGYTHjU6D5vwcYXkVEREQGQAFWBm56EpHhHoOIiIiMOaoQDMCS1FxWJN1g15l2HszLIMX9vvPqaUrq27t2jErlwLw0Yjyv223sOlPPwWDbojI4ktd1qP18FStvde3X4nkNQCI78zKIN1yvL2N6alY+D3KeosYkjmQkegbF2TOnedow7FCKeGgL6TmGmOu4yKXygczYLiZ5ex4JxreC9GVj1lSSltL1urs+7le/v4kn5sTyyftvsvlXV/o9GhEREQkfBdiBikpjRZ4raBbdAiZkcCTja7zQ5A6DEzI4khHN2TNV3nD41Kx8VswDztRzsL2ekup6QtqB7W1MAIkZHIm2sav6PAc9185IZYknWPcq8KatqOJKEordL4wBNX8dKRykbkONe6MrhKavWdzPG7VySCjLI6HHG7zc42qtpm6De5/pK7CsqCSZftxUJiIiIiOeAuyA+c1ctjtwkkh8FNAexQtpiTiv+s5svnTVxjfnfYW5UfUcHJIZz57G5HnPMAtMO+81tpM1NZaUYKcLqobm8hqawR0QZ9LR3aoDVTuw+rxxiNv2PBLikoiAfszCTuKeWGi/fL37XfLzSY5twFZuCLiXd3HDXknarMU0VPkG3z/9aitP/KrPAxAREZERRAF2wNpoNIZQ74wqQDTxURAzNZcjUwOP9AmUwzamcAicrQXA0d/zHKKpJpf0nFIyc0qDVgcikuKBSNK2VwYe7uhvYBYREZGRTAF2CAV0YscUT3htwLZhB073uzFrKkmL6//ZOvdtpm4f7nVj88jcnhekT+t7LRERERmdtArBkGijpR1iYqLDPZAwcn/sX1MV2kBZtYO6DWupO9wAsVOIne56u7OxBYjnS9NDeTEREREZiRRgh0Q7T9uaIDGDA6lRve7b2AYkJvFU0M3ttADx0Z7zuFYg6HtnNVyu81cHRE2Y5H3Hf4WAwXBVBlr49LL7jaoqGhyRJK9Y17WyQw+++v1NvPLSNl55Mj80AxIREZFhowrBULl1nqLzGRzJ8OvB+txE5fLShdMkzcvlwbx8HnS/511GiyZWnm8ynMd1o1ZLRi6WYfpSBqaG5n33EbfC/XE/gL2aSzW5pBtmSQOW2Yr17N9Bw67NNF/Ge7OY768C/nWBGprLgbLSgB5ssKW0/tTYCsRCajoPUsXvBv31ioiIyHD5QnrGnL8BTEmZxEc3btLZOXJudUmYMIHbH3/MnTt3wj0UGXWm8cMfP8accXZ+89RrCrAiIiImogqBjE0Fi5gzDj55/6jCq4iIiMmoQiBjy4zvsWV1FuOAq799hsrj4R6QiIiI9JcqBCIiIiJiKqoQiIiIiIipKMCKiIiIiKkowIqIiIiIqSjAioiIiIipKMCKiIiIiKkowIqIiIiIqSjAioiIiIipjKkHGdwpeQ9HKsBVYnf809j64kVERERGiTE1A3vXgbnE7ZhLbP1UHI/9jM/DPSARERER6bcxFWA97vr9e9w9Pp07SeEeiYiIiIj015gMsCIiIiJiXgqwIiIiImIqCrAiIiIiYipjM8A2vkvE7VjavvVsuEciIiIiIv00NgMse4h4cy7jWx6gdd17OB8oDfeARERERKSPxuhSqM/y13Xf5k7tT4nbsSfcgxERERGRfhibM7BJf8cdHERcUHgVERERMZuxGWBFRERExLQUYEVERETEVBRgRURERMRUxmSA/XxWOp9xiy82hnskIiIiItJfY2oVgjsl7+FIBXAQveefxtYXLyIiIjJKjKkMd9eBucSFexAiIiIiMihjskIgIiIiIualACsiIiIipqIAKyIiIiKmogArIiIiIqaiACsiIiIipqIAKyIiIiKmMqaW0XKJ4oV5uWRFgf18FStv9b6fR8/79yLpZzhL04nY8wAR3gcoLGTl1iIme3eq5/imVzk5wEt4pC19jmXZsV1v2I9Q9vqJQZ518ONw1r7Bi/utwz6O8LOw9JlVZMbCtaPr2Vnd/zMsWF1BQVwtb23biy30AxyYvDWUL0rtet3dz1nmv9E67xbj3/zn0P3GnPlvtBZOBSDy2FzuqQvViUVExAzGYIDtm6dm5ZKFjV3V9Rwc9Nme5a+lc6H2p4bwCnCCnZtcf+G7wt6gLwR5a1iWDXW71xM0K1oeYePybFqDBCnPGOp2Px/kWFfYjutHCLXtf56y/YZj+//VSL+5w3JrkDDpDpzBQ3QPx3Wn+lXKqg3Hdrdf3SGi5/0Ltx/7WWhCbNLPcBZOVXAVERnDxmCAbefpM1W97JPIzESwnw9FeC2l87Fv01H/H8T9155Bn603C9JTwX4keHjtha3WijM7m7RsC1j9TpA3k8k4qKsdizOog2Vl/7b17A/3MKovcm1RKpPTF0K1X0i1zCMtFq6dGoqZ+j1EvDmFz9d9m/YHSokZ5J+Dz2el89nt94hSeBURGbPUgQ0mKor4EJ3q8weW0zb+KrEHfhKiM/bEwsTBTHNaz2BzQIxlHml+mxakp4LDygfKryZ2gg/tQMpMFvhtScu2EEM9Hw6g3tA3P+GeY1f5LHs5nUlDdQ0RERkrxtAMrH+ntZ2zZ07zdPtQXrOUO2mx3F27e9Df6AWrKyhI6Xrd3y6lfx81ZlEF5Ys8rzzdWysfWB1kZlu4zwI2b1hdyIwUcNaeMfQvu3qdHmOr4+qqRXB0PccTjd9bY4/Z/3vk6KaeEfjf18Pne9raiM2nd2q4lrsaEuM5MLaI8q1F3vN4fl5OXqqnICWVGXlw0vvzY+E+SyzY/8enfx3QpXYMsoPrrhK0fetZIoblFzoRERmtxlCANVQHJmRwJCPab3vgTVsxGfkc8R5uY9eZflYKkr5B53i469ZgPjI1dBPdfVlXWKlgJa5QEhA0fMKLOzR5+qg9dGChmxpBkPrAgtWPwP71lHneyltD+aJVrGwa2E1KZjV5UQXLHLW8tWkvNvd/q4LVCzn5+gl8qgN5ayhfFHxe3xVeA8Mo/r8QpBRRHlfLW5te7brWM49wbdtebNa9vLhpL712WYPVCILVB/LWsJS9lG3yXN8V2JetbhzEDYF7uMu2HNL+js/Rxz8iIjJwYyjA9sYQcKNSOTAvjZbBrDoAkDSBz7g6uBtN8orIjK3n+DZDaLDu5Q/2bArcIaTrZqkB3Ijjz3oGmyObTMs80rBiw1MfqPWpD5x8/Xnf49zBKC7RAoR2FnZJai4rpkYF39h0nqILTe5fShKD7+P95SORnXkZBJnoZMAz8j533lu52QrEJZEGfZypdNc+7Be7Zj89/w0SUvH5XvrMgHpmy+OZ3OdrgatGUMTklJks4AQn6aoP/MH4i0f1q7wY7Lh+fW2BvnjrFmSncycJvxsa+8r9qYbtXQVgEZExTAF2CH0+YQIwmAQMaYnxQCwFWyso8N/oGFyYCM6/RhCsPkDgR9ZuzpCOxeVg/WkO1vey063zFPU689vEyurebuDrH2ez78BOvr6+n8uguUOvIVAO7Q1V/jWC4PWBYBURABxDMqQ+KKXzsX+hbbyD6D1ziRlQ+BURkdFCAXYIffHW4MJrl9CsD9tXnhpB3CRgUpDVBzzh1Wf2UUtlDdS1ZgekpPr8kuKsfWPoqhjG2fKgYdkTXn1/7lxr0YZiALf4Yr8D6B4i3txDBKV0PvYerR//B3Hq0YqIjFkKsEOp8RZ3M5c7mXDXAGsEtqYWIJ6Jof9kvnuej7DTF7KAwPoAk+KJwUHd8eF5OMKIrhAM2kIKsmMH/ICDgXHVAQos81hAkPoAqcTFgrP2SMh/afp8wgS4fWkQH/+rRysiIgqwQ6vxXSJuz6Xtq89yT90AZ4uqj1A3fxWZy9dwMxSzsNZGWiH4WqBdO7lrBEUUEKQ+cL0FJ6muGVorGJ8oNtYqBKESuu5wkEpCECcv1VOwKJuCbILUB+ppdcBkQwfXu0rCoCoErv4qH3+k4CkiIoMyhgJs4Oxb1jz3KgOeWbyQc88WZT9AZ9JPAm9aCeiRdnVdu5ZPsrJ/2xvwzKqAHuzAZu1OsHN3EhuXG1cqCKwoeGoEMTiw+T+8wLqX/bUWlhmW4rp29A3q5q/yWT82YGmo7FWUZwe/3ujk/6hgyFxe4Xpilbd+cYKdR2dSvsjzvTEY4LJVJ19/g4l+Py8BPyue1QiAa5f8f5Gxsn9/LWnGnxH7Ed6q/SbLLF17db/6RTfLhWUudnVY/1Mf/YuIyOB8IT1jzt8ApqRM4qMbN+ns7Az3mLwSJkzg9scfc+fOnXAPZRDcN5+osyfBdLesWXdLaZnWs/x13be5U/vTwT+J64H/4nbapdA8llZERExJ//8fcnuI+M/3uDv127SWPBvuwchIMyk+YCUH4/utTaMhvLofp3z7PaJC8DjlL966BePn0pkZgqGJiIgpaQZ2uCT9DGdpOhF7Hhjg+pcyWgV8FA/09NQu08n8N1rn3QrpjOnnD/wXt93fs8hjcwe31rKIiJiOAqyIiIiImIoqBCIiIiJiKgqwIiIiImIqCrAiIiIiYioKsCIiIiJiKgqwIiIiImIqCrAiIiIiYioKsCIiIiJiKgqwIiIiImIqCrBhF8UL8/I5Misx3APpt5g1lWSWrSAi3AMRERGRMUUBVkRERERMRQFWREREREzlC+kZc/4GMCVlEh/duElnZ2e4x+SVMGECtz/+mDt37oR7KD6WpOayIukGu86082BeBinu951XT1NS3961Y1QqB+alEeN53W5j15l6Dgbb5sd+voqVt7r2a/G8BiCRnXkZxBuu15cxPTUrnwc5T1FjEkcyPJWFds6eOc3ThmH3bDHJ2/NI6GZre80erPtqAIh4aAvp0//MpfJGEg3HGPeJWVNJWtxFLpXvwvOTF/HQFtJzWrBt2IHTe+YcEspKSY71vO6gYddmmi/7j2AaP/zxY8wZ5+D917fyiw/7+nWJiIiIWdwV7gGYVlQaK/JcQbPoFjAhgyMZX+OFJncYnJDBkYxozp6p8obDp2bls2IecKaeg+31lFTX4+rA5pLVdp6iC01DOyaAxAyORNvYVX2eg55rZ6SyxBOse3WIhg2HaCB4+AwQO5P07TNpPryWuiogfx2ZxUtI+KAmSPjsjis0R9bsoc4dfMlfR+aKLRA0xIqIiMhopgrBgLVz9oxhVrTdgZMo4qMAonghLRHn1T/6zGy+dNWGM+orzI0Kx5g87xlmgWnnvcZ2iIr1ztiGXgcNu9bSUOV+ef0T2onknkl9P0PEQ7kkOC5i94RXgKoqGhyRxN2X47f3FX7x/z7DE09p9lVERGS00gzsgLXRaPzY3TujChBNfBTETM3lyNTAI+OjgD5/ZB+qMYVLC58aZ0gv78K6oX9niJgQ6Z7JrQzcOGESUBP4voiIiIxaCrBDKKATKwPn6KWqICIiImOGKgRDoo2WdoiJiQ73QEaFzlsdEDtO682KiIgIoAA7RNp52tYEiRkcSO2t8NpOYxuQmMRTQTe30wLER3vO41qBYOg6q33nCpZTiJ0+2HN0hVPXCgSRvvvsO00zyaT16aEJ0/jhj7fxykvbWFsw8HGJiIjIyKUKwVC5dZ6i8xkcyfDrwfrcROXy0oXTJM3L5cG8fB50v+ddRosmVp5vMpzHtexVS0YulmH6UrrTuW8ztgmVpK2oJNn9nnGJrL6d4yAN00tJ8/Rb7dXUHZ5OZrFxr0M0bAC25/n1YIMtpXWFG63AOJiakQ/HqxAREZHRRevAyugz43tsWZ3FuPqjPPGyAqyIiMhoowqBjDoPFmcxDgfvH1Z4FRERGY1UIZBR46vf38QTc2IBO7956jV+F+4BiYiIyJBQhUBERERETEUVAhERERExFQVYERERETEVBVgRERERMRUFWBERERExFQVYERERETEVBVgRERERMRUFWBERERExlTH1IIM7Je/hSAW4SuyOfxpbX7yIiIjIKDGmZmDvOjCXuB1zia2fiuOxn/F5uAckIiIiIv02pgKsx12/f4+7x6dzJyncIxERERGR/hqTAVZEREREzEsBVkRERERMRQFWRERERExlbAbYxneJuB1L27eeDfdIRERERKSfxmaAZQ8Rb85lfMsDtK57D+cDpeEekIiIiIj00RhdCvVZ/rru29yp/SlxO/aEezAiIiIi0g9jcwY26e+4g4OICwqvIiIiImYzNgOsiIiIiJiWAqyIiIiImIoCrIiIiIiYypgMsJ/PSuczbvHFxnCPRERERET6a0ytQnCn5D0cqQAOovf809j64kVERERGiTGV4e46MJe4cA9CRERERAZlTFYIRERERMS8FGBFRERExFQUYEVERETEVBRgRURERMRUFGBFRERExFQUYEVERETEVBRgRURERMRUxtA6sBaWPrOKzFjPawd1u59nv3VwZ01b+hzLsmO73rAfoez1E4M7aQjG4ax9gxcH+8UNUuSSX5OVFeN93XH2Dc4ePDDIs65lRnkx8d7XTuxvf5eGK4M87aDHYefDsh/RMtzDEBERGYPGUIC1sn/bevYD5K2hfFF8bwf0Lm8Ny7Khbvf64EHY8ggbl2fTenQ9O6t9N7kCJ92E6IWs3FpEXD9CqG3/85TtNxzb/68m5DoOfpdTB8ET9iIHfcYSkjcWE3/tMKd2VgbdI37lMWbEneXsi+vp8NniDpzdHOsK2y39CKGVfFhWaTi2n1/KaDF9BZYVM+k4vJaGqnAPRkRExgpVCAZhQXoq2P9nQLO4tlorTmJJy7YEbsybyWQc2GrDO4M64kzLJTHGif1E8PDas0qargGTZxH4q0sJ8ZYYuHZBM6giIiImoAA7YBYmDmaa03oGmwNiLPNI89u0ID0VHFY+UH71lRw/qFnclkt2IIXE+/02TMslMQZaLg0kGIuIiMhwG0MVgr5bsLqCgpSu19eCVAB64t9HjVlUQfkiz6t6jm96lZNY+cDqIDPbwn0WsHnD6kJmpICz9gw27xn8+7sjo+MaMtMqyHo0qyucOoNVAHri30fNIqv8mPeVt3v7zgVaClOIT18L73SF1cgsC5HYsb9jOOX9P2d+oeGHwAwd1/x1ZBaDbcNlxm/PI8H9dnvNHqz7atyvckgoKyXu8h6sjflkFie73++gYddmmi93nS7ioS2k5xh+ZbBXU/fqoaDbooorSSj2vGrAtmEHTu/WxSQbxhPsWqH21e9v4ok5sXzy/pts/tWwF6RFRGSIKcD6cAfF1iOUbXLfiGV5hI3LK1iJK8QG3LQVW0T51iL3C/eNYZ4+ag8dWHDXCLKzXTUCqzuMuusDdYb6wILVj8D+9ZR53spbQ/miVaxs6l+wHpHu/znzC+Oxv13ovRErfuUxsjZWuEOsfziFlEeP4Y2W7k6rp4/afQcWXDWCYuLdNQJXGPXUB37fFU6nVZCVfoFTZT9yv1FC8sZVzPCOaSRLJm17Ms2H11JXhTvUlpLcWOPTUY3KKSWTBmwb1uIEYtZUkvbQChzlu+j0vE4xBlFXCM0sS+JS+S46922mbh+9d2Dd26nZQ507REc8tIX0FZXco96siIgMkAKsUV4RmbH1HN9mWEXAupc/2LMpSF8I1ScMN0sZwu5AVx2wnsHmyCbTMo80rNjw1AdqfeoDJ19/3ve46otcW5RKXKIFCO0s7JLUXFZMjQq+sek8RReaQni1EpLnp9Bx9g2fVQRaTpyl41EL8dOg4UpXOO0KuwNfdaDlkh0mu2oELe/QVR84ZagPXFnPWZ/zH6DF+n1SslwVhpEdYKHZGAyrqmj4P6Ukz1pMQ9Whrp0cF11B1P2y81YHpIwjAuicvoKvpEDzYeMs6iEaDk8noXgKsdPp8+xpzIMziXJc5JJ3Bhg69x2kYXqQMYXQn361lSd+NSSnFhGREUAB1iAtMR6IpWBrBQX+Gx1JpIHhY/1Q8K8RBKsP4J3JjfE72knoHaw/zcH6IThxUCnExEBk1irmZ60K2BqTDIT601+/GkHQ+gDumdzJ/geP6AKBWwd/vW58XcOnraUQl+QKp563Wxu7/h26ZlQBJo0jigZu+M+OVl2muTiPeyYBfQqwOXwpDtovf+BzLajBcXkJTPcbk4iISB8pwAbwdFSHh6dGEDcJmBRYH/CGV5/1ZUfOUlmhEJr1YfvKXSOIu5fIYPUBPOHVd31Z0y+V5RdYRUREzEwB1sDW1ALEMzH0n8x3z1MjSF/IAgLrA0yKJwYHdceH5+EIw1shsON0QnxCSu+7hlDLJTsUWoi/n8D6ACVExgHXfh+GhyMMBc8s6PXed/W4/gntzGR8PjiNs7D500mgg4Y+n8o1+xs1/T4iqDEE6Bxip0cqVIuIyIBpGS2j6iPUOWLJXL6GBaE4n7WRVmBy+sKeduIDqwNSiihIAafVrz5wvQUnsa4ZWsAz+xrw6XaIHKw/TVF1VfB/QhpeAQ7QcMoOk4vJWlISkjN2NDshxtWf7dY7F2ghhpTCLCKx0+RTHzhARysQd693VQT/J4r130JWbq2gfGsFK/MGcZoBiFlTSnJsAzcMHdReXf6AVgckFK8z1FYWk1ycDPbTvv3Xy410AAmzFgc9lfNCA8TOJOWhHO97EQ8tITm2g4bfDU3/FVyrELzy0jZeeTJ/yK4hIiLhM4ZmYAODX+byCjLB8PhXK/u3vQHPrArowfZ3KS2XE+zcncTG5caVCgIrCp4aQUywhxdY97K/1sIyw1Jc146+Qd38VT7rx/ov/UX2Ksqzg19vuAT0SL1dV8OSVO/8iFP8nPmFfj3Yfi+l5dJx8Lt8mHCMGYaVCgIrCp7VCAj68IKWnYdpKS/uWorLeZazx+LJKjTs5L/0FzHMcO8fcD1L0jDWPSJJXlGJZ3EsHBe5tGFXP2c6a2gur+HTNZWkbe+anW43rCTQ5RANu5KIXJFH5nZPOjesXlC1g7rrK7CsKCUzpzRw+xD5U2MrEAup6TxIFb8bwmuJiMjw+0J6xpy/AUxJmcRHN27S2TlyPtRLmDCB2x9/zJ07d8I9FJGRL38dmcXxQ77GqjlM44c/fow54+z85qnXFGBFREYZVQhEZPQpWMSccfDJ+0cVXkVERqExVCEQGWHci/x3c8uc2x3auIvoXk7VfHgtDaEb2bAJeNpXMJ/9f3D3/9PzPp51bWd8jy2rsxgHXP3tM1QeD9lQRURkBFGFQERERERMRRUCERERETEVBVgRERERMRUFWBERERExlRF9E1fzrVvhHoKIiIiIjDCagRURERERU1GAFRERERFTUYAVEREREVMZ0R1YAKLX8a/zZxMNtF15jYevngr3iEREREQkjEb+DGzbDh4+/gMWnzoH0x7n5YnhHpCIiIiIhNPID7AebTs41ghpSQ+HeyQiIiIiEkbmCbAiIiIiIijAioiIiIjJKMCKiIiIiKmYKsDubqyHpAU8Fx3ukYiIiIhIuJgqwHKzjMXHTxI//5ccKihnebjHIyIiIiLDbuSvA2uwYOrrrJvWxL8f/wFPhnswIiIiIhIWppqBnRYTBY3/y+5wD0REREREwsZUAVZERERERAFWRERERExFAVZERERETMVEAfZhMpOgzfnncA9ERERERMJo5K9CEL2Of50/m2iAxsMsvnoq3CMSERERkTAa+QG2bQcPHw/3IERERERkpDBRhUBERERERAFWRERERExGAVZERERETEUBVkRERERMRQFWRERERExFAVZERERETGXIAmx5xftc3P8+F/f/hfKhuoiIiIiIjDlDFmDL1s9h5tI5HPhzAyW7W1g2VBcSERERkTFlyCsEZf+Zxiexrdx//1BfSURERETGAnVgRURERMRUFGBFRERExFQUYEVERETEVIY+wL4Ty/86Wvn6PzqH/FIiIiIiMvoNwwzs3SxbPofttxq5uP99Tm/8bOgvKSIiIiKj1l1Dfwknv9l/icT3ZzNz6bShv5yIiIiIjGpDPwN7fyeJxPG/p+4e8kuJiIiIyOinm7hERERExFQUYEVERETEVBRgRURERMRUhjzALpvfyjiiuP7OUF9JRERERMaCIVuFoLzifUqmAMTxh1fupWyoLiQiIiIiY8oX0jPm/A1gSsokPrpxk87OznCPSURERESkW+rAioiIiIipKMCKiIiIiKkowIqIiIiIqSjAioiIiIipKMCKiIiIiKkowIqIiIiIqSjAioiIiIipDNmDDMaCyCW/JisrBq4d5tTOynAPRyR8Smbz5MKJXa+dVvauv8rNgB0/463d5/j7D2eT++LdPlsWTH2dddOivK/brrzGw1dP+eyz/Gu/5DtJXa9tdT/gycCLjG33t3D6iU85ulQPkBGR0WuMBdgcEspKSW6tpu7VQ+EeTJdpFWQ9mkUkTuxvf5eGK+Ee0Og1a3MhhZOCbLh+jpe3DE0SmrW5kMIvdxfoRjD/UNrd9yh3KssWTuTaiWMcPNDzKcsrzvF10tjuF1692s6x49QOTnZz/O4//oDdfwR4mJcLivvwRQzWQlZuLWIycFdU538AACAASURBVO3oenZWD8MlB+udeI7+4/uU7AcUYkVklBpjATa0Og5+l1MHB3+eyCwLkdfOYo/LIjGrhIYrvaQAGbALW45xAVyh69F7+fPb71J1OtyjGnkmPv4NHsls49jj7u8XE1ny2mye3BwYYifm3Mt4p5Xf9vJju2zjFUqmJHNgaTxvDdXAQy1vJpMdtdS1ZpOZvhCqT4R7RH1Stn42k3afo6QilrL1MeEejohIyKkDG3YlxFti6Gg+TYvVSaQll8hwD0nGttyp/ENmNNdOnHOHV4CbHHzbyu1Js1lS4rt7Ynx07+e8v4XVc1q58htzzQguSE+F1kb2X6qHlJksCPeA+uxulr2dxidTLvGbH4Z7LCIioTe0M7DTV2BZMRNvq80e+NF9xENbSM8xRDa/fWLWVJJGNXUXppNZnOx+t4OGXZtpvmw802KSt+eRYHzLcy7/ccTmkbk9z7tb8+G1NFT1/cvydl89ozn7BmeDfXZ6/8+ZX5ji81bLsUI+fMfwxrRcEmOcNJ09QAe5dGRZiJ+GoUZQQvLGVSRa3+BsU7HhfL51g8glvybLYuXsi38hpbyY+O7GFjAmOx+W/YgWANYyo7yY+CCd3viVx5gRd5azL66noy/fpJBxzfxx4hwsnO36KPfEMS7NcFUBbte9y1uvQX7FN5hN4Mf0XTOJxjDWs1mbCynkHC9/eK/hI/Q2zgXM1rrGNtn4lvdjdv9tFh55zeJ95Rp3m984DUHQr0Pa9zER8NG//7W85zNUKYwf/0/MuZfx3OSM/4/06Zv8ucTClMRooI3+WDa/lXGONF7/Rb8OC7OFzEiBa0dPQDVcW1TEjDw46a0RWFj6zCrSrG/wYlMR5YtS3e87qNv9PPutrldpS59jmcXKW9saKXDXEQCctW/womcngLw1hnMA1HN806vuOoW7ymA/QtnrvrPAC1ZXUBBXy1vb9mIzbngnnqP/aKNkQQvLfhF81vur39/EE3Ni+eT9N9n8K3WXRMQ8hi7A5q8jsziZ9po91O2r8b6XnI83LMasqSQtpQHbhh04AU8IzSxL4lL5Ljo950rJIzPuIpc27KDT02N9aAUO7z45JJTlkRAkIANweRfWDZ79Bt+B7aoOuAJf0BnTaRVkFaYEBlY/kVkWIp1WWq4AnKbJGbxGEJm1ivnY+bCskBbcgbKkghZjoIzJIqs8i5ZjhZx6B3dY/T7JZw+4gu60CrLSL3Cq7EfuA1zheMbGCncwrcR+9lvEZ80iHtyh1vV1Jk6GlmPDHV67TF5o4dzbx7hUUMi83G8wz/Yue1tm80imhVmco+r0TWYvvJdZuVe56Q100cxKi+Z2Xd/Dq9ek2Tz5ZSt7Hz/HTaJdAblkKhdOe0JlNPkVs5ncbXf2JgcfPwb0oQNbMpt/4BwvP+4Jha7w+8jmNt9z9zqmriDsE0gfn01+7jl30HUf9/E5Xn7cfVTuVJY9WsgSXMckxkeD8y80dfOtGR8fDSUW336sX0D37cN+xv0zWqE5yTzVAXDVB6jneDXACT60F1EQpEYQk72Kcuo5vmk9J3EHyqWP8IExUMZms2yrq0dbVo07rD7C0lp30LU8wsb0i5RtetV9gCscFzzzCNe27cXGCY7XfpNl2TNZwAlDR9gTsv3Cq1vZ+WRK/u+npIX4WyMiEm5DFGAXk1ycDPZqrJ7wClC1gwbPv09fwVdSoPmwJ7wCHKLh8HQSiqcQO52uGVbHRUOgrcFxeQnkjCMC3O9N4p5YaL98fWi+nIFIjicSJ00NPe3krg9YT7uD4QE6Wle5awQHfMOi03f2s6PZCZPjiQTDfn43gTW00EEKMcnAFeDKes76TLIcoMX6fVKyus7TcdZKR1YWKUtKaHEnkMgl3yIee49BPFAiO/MySAm6rZ2zZ07zdHs/TnfdStVpmFUA42PaOPZaGzxu/FL+wrWFs5ldMJGq0+5gVmJhdkwb52r6N1sI+M2AtnHB1sbszHEkgjfAxsfAbdsAzu3vwDm/YHeTS9dh8pejmei9Xh/G5P7o/3bduz43U9187VzXOUoszI65ybH1hmB8+ipnCiwUzvC5WhBt3Py4a8wvu6/R+01qn5IYC1dOmquLuSA9FexHvGHxWrMDAgIk4PCd/bzW7ICUeCaDIVT6zspyvQUnqcRNAqyAdS8vWo0ntfKB1UFmdtd5bLVWnNnZfH2phZPuE6Ut/aYhZAdx9Ut8go3sH94LQWa///SrrTzxq358U0RERoihCbDTk4gEmi/0MMs5aRxRNHDD/6P7qss0F+dxzyTgcrADgzlEU00u6TmlZOaUBq0qDLt3DmOfv4qUR4+RQpDqALjrA9DR1JU2Wi7ZodC/RgC0/sUn0Aa/gayFDuMxV9Zz1q9wGL/yGDMm46drrpUr67FfO8YMb4h2h+yzvzLu1QdNrKzuRy+jF7dbDEHR+UmQ2cGb/L6ujUcy72UWN7kAzJoxEa6fG6KbtDzX+wZPvsYgVzFwz4r65ztn0J27N3kc4+k5sE9MjAaiKXytkEL/jU5XYO5pnBO/DHzc406B7u8kEbqd0R2ZXDObztp67zueAOlbIwBaG31mP237n6dsv//5WrhpDKjWvby4aa/PHgtWV1AQ8Buf4U+ddS9/sGdTYJlHGlZsWLjPEouzdm+3qzaIiIxWo2YVgs59m6nbh7u64O64+szcDrcDNLx4gAbcobHwGPMLfTupkVkWIoFI9zajoViNwBVeg3Rns3z38wnR5JIYY8fe2/pII8DNmr9wO9NCeglcODCR9EltnHt76Bauuvnau7wM7s7pbFeQ7Xb90+54wutNn56ua1ZzCAYNwM2eO8EtbTDJONvcNdYBzTq/E0HTEwMZZxjlzXR1VbNXUZ7tuylmCFYjcIXXIN1Zv2ufvFRPwSIL91nAxjzSYuv5w35r4Al9xNF0NaTDFREJu6EJsJcb6WAmkUk5QE3wfa5/QjszGZ8PTuNEXf50EuigYaBtgKod1FXhDrJ+VYQwadlZyCncAdJvZjPYQxB89wuVEiLjgGu/732dWffscWJWCS1YoN+zrxDyCkFfGD8KL7mXydetHByOJbI8H6eXzObJgB5ub9yhsM7a/56uv2ufcJuJxE8Gurn+zaY2IJqJuXChu318fhEwbCi5l8m9zPAG9yWaHPD1DCdgjhrBgvTUgGoAeEJlkBrBoFiYGAfY/4des2j1EermryIt20IaFuht9nXqp4wjiuv9qv+IiIx8Q7SM1iGaajqIyiklOd/wtvsmLgAuf0CrAxKK1xn+SvN0Z08POnRGJLluQ/rU5zw1fNoKpEwPw1+j7gDprQKkEBMDLZcCn+DV0eyEGNcMaOgcoKMViLvXe9OZ/2oKxn1brE4is1aRlQVNZwcy++qqEBQF/WcIwqvbhQ9vum52WjiRax8O72MDJrrvzvcPr00tbRBzL7Nygx3VRovTfWOUW7cPW+jN6aucuQ6TF36DfMO1XDdxuV8csHLOGc3sR2czq9fzGPeZyJKFE7ldN5BKxt2882EcTHFQ3t9DByht6XOUb62gfPXCARztCpRO65mAG6NsTS1AKjPygh03UFZutgJxSd6brVxBOTbovh9YHcRkr2JZtqvW0JPyjAZwfCnoDV7gWoXglZe28cqT+d3sISIyMg1ZhaBz32bqGteRWVxJgueBOfZq6jw32VJDc3kNn66pJG17V4jzWbWgr/yXyQLAuLpBF+ere2goK/W5Zn+X0QrokWatYn7WKoxLUgUNh8bZ1vtnEY8Te5CbvDw3UrlqBH0fV29adh6mpbyYrHLX3fE4z3L2WDxZAWVI6Dj4e1qyionvy4ztSHLAyrnciczGyu+D5G7/cDj70UJmP0r/O6y5U1n2qIXxPm8G/2j+5mvvcmxzIYWea2Fc2qqNqgNWpjzqriDgGsveOguPDODW8QtbjtH0+Dd4xP9a3tDZRtX6d6HiGwE9WOPKARe2HIPNhT77BFuOq6/eOhXH6jk2Fm2cQFl3T+EKIVfQjIWUb7LUcqL3mU0jyzzSYqG1KchB1Re5tiiVyekLobo+cPsAnXz9CDO2FrFsq7sz4KjlraPxLFsUuK9t//9wLbuIyb3N2N7fwqIpcOU33T844k+NrUAspKbzIFX8bpBfh4jIcPlCesacvwFMSZnERzdu0tkZnsaojDSuJcLoZRmwkcfVKZ1iG3jYkqGxbOMVNsyJ4kA3jzddMPV11n3lco+Pku3ifpRs3Q94MujvHa5lqDJjjWupjhauNWHp8dG2n/HW7nN8vTmdmT0+iWsaP/zxY8wZZ+c3T72mACsipqEncUkQJSRvdD3QwFzhFWZtdj3Q4LcKryPOWy+m8AdHAyX7/zL0VYK8IjJjwVl7ZJSFVwtLn3E90KD78ArlFef4emwyB3p7jGzBIuaMg0/eP6rwKiKmMmpWIZAQmFZB1qNZro5skJvLRi7DU6/6vQqADJ+7WbZ8Nm/tPtd9lSB6NusKfsk6oO3Kazx89ZTP5uVf+yXfSep6HdjtdD+xCtdDA3oKeaZieYSNy7Nd3f0gT+PycX8Li6YkdzvTDcCM77FldRbjgKu/fYbK4yEfsYjIkFKFQERERERMRRUCERERETEVBVgRERERMRUFWBERERExFQVYERERETEVBVgRERERMRUFWBERERExFQVYERERETEVPcjARwnJG1eR4n14jRP729+l4cpQXc+wAD8ANzn2+Ln/v71zD4rqyvf9Z6pmIo/m1QqIQKuAImGGh+OIxPgKYsSTM1OJUDNH50xkcuPjHK0yUfPQS27d4WoeaJKqeMdHTkLm3KOTKUhSMydHjUjiIwbxJPLIECQiagPykpd0AyZ1ztw/9t7du7t3N91Ag+j6VKUqe/dvr/XrbYJffuu7fosab01nz+Iuyrd0881bseQ6nLilNITvo/rd33l2lvw9QH7Bl6y4lUyaVrP9MWDKT7JI5BJnvm5zGuM3cxE/C7/Jf164Sv8Y5iYQCAQCwXgjKrA2FNP8aiZleZmUlRjHYL52PthUwpubSjhaPdZHn5r4eEsDfGnQEK+jy5KNBeTvKSB/Y4Z3JxpF8v49BuZVUf7892M/uV8sM8NMXLvqXLxCODNjdNy6OjzxOuUnWSxZEIvfcHMUCAQCgWAcERXY+5LvKXz3MrHX55DgtMJYyuGdLo6rdJsM4g19VFd0kZSawBJKJ8bZ9Gf1pM28Q+1jRgoXa1WovYdf+DT8zDe55UqZhkYyhTZqOsYsLYFAIBAI7hpEBfY+JPd5IwsCIineoRs6eKQsTSCaLtqLamlkOvFLvT/lqPGHCIqvd7NgXRe5YzapO5VVHYbYcPobvuXWmOUlEAgEAsHdg3crsLEFpKxLwVe5bjxO2eHXbUJ8V39ESopKSNnF6NeXEM9xyi4nkp5pkO9qeVOfJT4/C736lsN89jEj8LgufkeVj/Z3Gz38WVbwEMnq11RawgfFtlGJuzLJjHJ8urf6CwoPKBaF71kc383tLw3kac6leF8VbnBq536NqmkcOS9uIClAdauvgsKXj9KgurVkznQwnuAMpWBcyfI5GXBaVdldupn8FXBq5wnC1OMZT5B3UImTcuLkDk6FvkRuqhJkn5tjTqaKQ7wqG3hjcl4iNxVHT2/cGp7/bSrdJ3dw+LTtt8z79xhWbGlg9ZN6Cv+g9b6W8ewbK5iJkY+fOcAnWiGe4E5l1S+ccH8TbW0mDwcPJzFjLlMs17P5WcZsy1V/wzn+85o0ptVfa2Km6hl1zJSfZJHo/62NB9dv5iJ+FmOmpvSSSlzrMCxYxEx/5drEtbJzGIVxVyAQCATDxHsCVhZ4A5WHKFOU1uJ3iF8MdfJyrH59CfHRRuryHqcLUARm+vMRVL66gwFlrOgs0kMqqcx7igFlo1V2AV2WmGwin89C70pEymIaVT6+qz8iZV0JupJMS07uIInuLuryMuW8pZzS1+MFEStv9Gqq4s0d7dKt7GS2ZmSSG2oVppJ4VW0CS5tJ7ro4sBGvwOI+HgyAjtahrQOK4NNiycYNJFFB4U5bwWpLBvEGaDwpjXfm8g2Wr9CyEUxn+Z4NmCoOkVdULwvKlaxfWmojKKNXFJDbp8wpidXlGzM4IwvdJRvXQNEO8hRxunQz+Ss2sL5DEqYNRedpTF1JTGoc1FsVbExqHLq+CorsxCsAZwP4Zh08OPV7wNsbuqTKKu2XXFZWp8TOxs/8rWuLgSZt1JQel8bQEJ8O+M/mZxlwq/o4ZzqA0LksSUrF0OaJ+JREs1/DOc7IwpfQuSxJXwRCxAoEAoFgmHjJQvAs8ZkGaDxOpbpMePYpq1CMLcAQDV0lT8kiEOB16kqMoItDH6sazlSpErTFdNWbQKe3VnYxoNPBQKfzjVf6jBR8TZXUqfIZ+OAIRhPo5zzr0XczpOjs8i6mucwI0Ym2FeBRIGxTHNG0U7K73XqzuIqSJgiKCSMMAH/CgoGmFmsHg/J2rpsgSO9vO+DMOwQSSYVmNdFd4ggLAbrbXIhXZPvADeoUYdjUhcmJjaDx5A5LpZT6NrqBkNA42yDjCfIsFd562ruBkHBi5I/PHLSrrJ6updFmnFLqjKBLXckSS1AGy1MDMNVfdPJdfkRTJwTG9zmxEXzG68+8yJbRqL7KldWhNm+FhzHszVueYeJa2XFrNdjcSz86AvxdPmSD38zZTDF/S801VbW441uumXWEh4+BhUUgEAgE9yTeqcDGRuALdF12UY2M1OOLEaN95fNsDV2ZWegiAbeX9l/HWLmIlJQNpKds0FjOz8Y3BAbqy61VXUASw2sxxEn52n7mBPm7+WaWkJ5p/6EJ31hP8h6aUL0/NNU7tNaqqWsnMyOQUKAdM+09QFQEibTLFdgwZuigsbzd5rncqf0w4r3n9RSV3SBpxUry96zUtA6AbB/oq6DR8thFGvpSSbK3EdBHd5P6Se0NZKbOGzbXZw7usK3kylYAe1mkXmg/c6qCBb9NJX4pnDmNRWSfugv6hLlTWfWbOXsMN2+Z6Vfn0n+V/yz17D9uP51OruTOdvxQ54/tn45AIBAIBO5xz3QhGPjgcco+QLYuZJGen2VXuR1dujy0HXibji4zRIWReSATRVf3Vn/h4JMtbPXjudGY8PR+8k5jEY25e1Kx9aRK9gFQPlMR4IVuBIp41fDOhqjj7ET0kjnTMVUcGjqXzgcoHM18HZArq9WuN29NCdfR31AxsTZvmYewKggEAoFA4CHeEbBXWxggBd/QbKBYO6a5iwFSCF0MXWohuDgRPSaMzcOc++xTlJ1FFrKSFaH5ajED3RvwjUvDl2KVoM1GH6eD7hb3Ra47320U6egyQ5KqsiqTGB8GpnqkQlwYi5L8NTd2OXBtErdpIPXJCBiRjUCm/iiv7jxqEZC2lU2NQxDs40aLKD06+qg+NVTrL6V6nMASIN5wgwsHXVVfvydqMtyumzSKyWrg1c1b40e/yQRhQfiBELACgUAgGDW85IF9HWOlCd+UDcQvVt2WN3EBcLWcDhPoM99R+UYV7+y5EZ9+5RuqB7oYkMfpumwEXQrxq7OtMavXYtCZMJZ6svHKyXdzQkzOS1IT/xfXWLyantB+qYVewsjcFWa9mZ1MZhQ0ll9DbRAIDHXDnHg2gG/6IPbHoyyCZAGpWAFiQvXQV89X9tpQ9rdGzxnlQw2aujARQIilC4N9NwUVp6WWXsv3rCTaWOu6+jrkprdlPPvGy7z1xk6ejB9u8u61xZoSOxu/9m9HZeNTv8kE/tOYMgI3iTRGkMWQInUgsDVw9F/7lluEkygOTRAIBALBKOI1C8HAB49T1vEO6WqvaONxyg4rEcU0v1rMwPoS4vNLrM+puxa4i327LgCM1OWpNlqdfYqy5gJS1sk+Wa0YjVZchnUlGCy5v275bpV8RIq9D1ajC0L05ACcIncKCLLc8LdYACytr8qvUVhuZvWBZLYeUOLMVL1XwmflynU7H5S2szXjIVWMjKmeozvUQvdHnK0LYcG8NgoX6xwb9Dv4SANYvqeA5ahbUmmJQ3W1NY6fxgU42eRVSp1xJdGGUbYR1B+lqCKO3BUF5K+QbjWePER1+gaNXxxKOVWxUGqpNUTFNv/vGwjsi+Gg02q1kc7bMDMwgNnzYqFuGL95uVVZVSwGrjZ4uU//tXPU6LJITM9ipnJP1SLLvTEquBa+iMSMLOlG+yXOVEeyJEkd1UZN6SUSM+ba+WBFKy2BQCAQDJ8fzPnxvL8BzDBEcbO1ne+++268cxJ4iiyEb9tbCJy10uJ7Ct+tYkHnHBLG4jCDu5CYnJfIjavX3Hxm4ckWah/r58JbQ5zEtXwTb/2dgdtf/gu7jnguYN1paaXdX1UgEAgEgvsTcRLXvUB0oKqK63j/dofZ7oMfkfteDLdnXKa2YOL4KUeNpZul6muRC/G6uIvyx5q5/aVhiGNkY3lykQEwcnYY4tW9tljK5i1x8pZAIBAIBCAqsPcMYZseYk2SvQfWTNV7X6isBnYs7qJ8SzffDFVhvEdYsrGA5QZAa3OZHfkFX7LiVjJprzo/vODRrS/z2HTgdiVv/a8/8e1oJywQCAQCgUATIWAFAoFAIBAIBBMKYSEQCAQCgUAgEEwohIAVCAQCgUAgEEwohIAVCAQCgUAgEEwohIAVCAQCgUAgEEwohIAVCAQCgUAgEEwohIAVCAQCgUAgEEwohIAVCAQCgUAgEEwofjjeCUxkfFd/REqKDhqPU3b49fFOx30Wv0N6pgFMlVS+uoOB8c5HcH+QnczWjDDrtameozuu0e4QKB11/GCd7UESORseZuNP/DF9/Tm/qAjnz7+Zhc50hYMvNFA0FvkLNNn+wqNkRYHx00/IJYXSR8KhqZKMV9rGJ6Glm8lfoR/ysBI1MTkvkZsaAMYT5B0s9W5+rljcRfmWO5zMiSBv/LIQCCYE95mAncvkvF8T2X2a6v1/Ge9kZJ4lPj8LveXahPG9x2m2O5VUv76E+BAhOMcC7VPNcCG4RoHsZLZm+Ls+Oe1uJG0muevirEcZO3tHaTPJzQijsbSED4pdD5lfUMUCYnjN7hS0og4TG/Gnq8MMF810/QZ0Dk/7s/eVh0lVfWD89BNyP7QLmx8jCWDlWktwPSGLMct3sxfLjnM5xnjAkDmFU7g/BYP9c8Oa0433ZP/9tWKAG91miILOJoDbmAjX+HMZReLW8PxvU61z9FVQ+LKLY6HvGuLIeXEDSd0uRPJZPSf//kuyiwAhYgUCl9xnAnZ0Gfjgcco+GMEAsQWkrEuBykOUWf5Wzyby+XfQv/oUXaORpBZnn6LsPjg6dri0H/iCNwEIY/WBZHBDdN2XWER3iSy6/VlW8BBrCnAQsWFzIwgy1fMfQ7zH3Oevkj0jkuIcPYXu5NBjthFu2194mNSeSjJekIRfzoaH2fjIw+xt+pztF+UgWSh2ffoJv/gQFGFY+oJKMM6P4c+P6Kj410/k56SYjS+YKbKISjPbX/hENbskCje+AngqKN3JSUZTkHuIW+/pw0oyHATtoxQy9PymbtPIEnSGpbq6Q66uSqIw90VGJGIbin5H3l1Sxs/bkUzUu1VkFwSQt8OrvwoIBBMa4YEdR3xT4vDFiNFGHRXT7E3xKhCMCmGszgijt7pKVTE289mOKhp1cfzdJtsKdqheo6Jtz+IuNs7r5urH7lSeTHRqaKS9r3xiI/iKDl3BiD+zUpX5/dn7xCx0TZUqEdZG7qdtEDWLvfPlWxcb+MVmlZijjWNfmyEqgu1OczKz/WIb6KaRNt9pkAZu5jSKDP2eNPjwChUmMMwOdx5z0ezFn10ZrF8xHVPFUZU1oJ6il0/QGJBKTk6c12YeW35E7nsx3J5xmY+fHO9cBIK7F+9WYGc9TdzTCfgp10bHpfsHfrWbOXN9rTfsYnSbXyeG01TXzCIpK1K+O0Dz27vovKIe6edEvraUyepbylj2eQQsJem1pZawzuPP0vyZ+1/L4n1Vsqk8RKVWiU7xmqroKsmkzqb6qcc3FrCzDEjY2wtSSMkv0ZzXd/VHpMTVU/lqCwbVMza52eej5d1d/A7pmVCXV0Oos3E0c1PQtkB4F6nyN6OhiusxySTroLf6C/6DZMkK0FTFm7vbZWsAjsv08jL4bU8qrdnJbM2Akk0tzDmQTLR8u7f6CwoPmB1yS7ZZZrYusyfuyiQzyvpR8rpMktc5xlnnVHlIaadkUxU1HueE49K//I4cv6NqPnVMdgTRmKm6ZDcu7Vxugky9P2D/mWty07sJ7Ivh4B+cBNhUBO2rn67RhejkfHRM1oHxom1Vc7ssymal+sNFV3nrmDofuOgiBBOtLj93HHNkOY0e1vfkHPvqatGhz1XV5jZyN7v/5+IRSxOIpo/qCntjayl1xpUsnzwdUD7ror0+g/V7Vlr+PzBVHOJVi/K1/QzNGGXezeSvmG69duKTXbKxgOWWH699Vg+uveUhYCX5e1Zanms8uYPDp+0GO6vn5N83kL2ki9w/aK9GzF67ky3zArj95b+w68iY/sAVCO4KvCdgl20jKSuS/kv/RvX7lyz3IpdhEYu6za8TY2im4bl9SD8SJRGalBfO5fy3+U4Zy7CUpJBaLj+3j+8UH+uvnqbPEjOXyXlLmawhkAG48jb1zylxI/fAWq0Dkojz1QqKLSAl06AhWNXjnKMrJQvDuhIMmhvBXqcuT7rnlgdWl0JKfgpdJZmSRWDxO6RnriWyslgSlBbrQDaRz29w9NJZMBCfr8f4XiZ1VxXBrhpHEa+qnKUYxkG8WglKSkZfWsLR0IdYE5PM3/XU82ZpBFsz4liW1s5nB+ppPJDMjLn+UG79S9rd5W1Hwsg8IC2hf1CueGeTWZZmFciJux4imXqObtL2ztbsLpEE6FAe2LSZ5Ma38OamKvmGJIwzC2bSYbNcP3ROijDtrf6CNxVhm53M6ux2i4CXnjNTsknOT55v6y75l4FQSaC2O/PrBvsTlp3MGhvBHceaA9Yqrd8eIwAAFktJREFUma0f9nsWx3dDZ7h71gF3me+PHpXomu+PHjNXmpQAadl/1rVKKoJTSHUh4KaH+ANtLsRpOIWPhGP6+nP2epyj+zkZHnmU0kfki9HaxGb/njTI2ZBKqq6N44fGRkzbExOqRxKmTgJCwokB2UYwneV7JKvB4XpkEbqGnAplY1cph3eqRagkaEPs58x5idzULk7t3MEZQLEs5G9EJWJlb2vADU7t3G+N27iGmPqjNNQf5dWdR3HLA6si76+RZD92hxh3Xo5AcB/iJQH7cyKzIsF4mnpFvAJ8to9m5d9nPc1UA3QeV8QrwF9oPj6LyVkzCJiFtcLaV6sStJfou7Ia5gbyAMj3ovAJgH7r3wDjT6QeX0x0NLsKkgSqfn0J8dFZpOdnAUbq8oZrIbCrfjZ3MYABXSROKrzujTNQWc9ASop1nNgIfIGuy1bB7RDjFn68Mj+NFD/tT41//Yz1tzxJu55zxcAmQAfXi9shOkIVIFcHk+JIRKlchrEoyZ/e6vZhbM4y2wjO9kst9CbFoY8GZE9oWDDQYx75xq/yaxTaiEUzNQ1mkpMCCQXV+EPlJC3901RlW5UtrsJq55beSWPpF9bqLmY+K28nOSOCRNrpcJFqR5cZgqUx35QFauKuTDKDXW2Cu0NoAFw9M5qeP3lpHpXoigpUbTCSfKZ8+gm/+NCfva+4GOqJFLKiwPT1FTtxarcZynSFg54KPLdzsq9uyp7b/YFM31zpmWi2QeM9Kdht5DJ+6qE4HyMaO/uwVZ99tl0ITp+gOn0DMalxUO9mawIyWJ4aQOPJ38miFKCeorIbJK1IYAmlnAFictaQFNBH9bv7beMOujuPE65N4jYNpD4ZARqrEt8e2cOWIyObQiCYyHhHwM4KxxforHFR5YwKxI9mWu2X7j+7QmfWUnyigCtaD2rxFzoupTFn7q9JmvtrTavCmHP2OMb0DVJ1FS3rgJWuw5mUgWVTV3z+R8OsZHYxoH7m6g4qvbGN9WoLA6Sgn/MsnJUrsIqf16PNYf28cNED78ZQyEJRqvnJ1UG7NcKaU/XMXxfHnGyoKUZeCm+nxH6JfVRQRF8yWw8w4i4G9nYDZQ6PSPMnEGisc5GFHBOUkcnWDMf5wtJwKWDd8rvas/g7QnE9rqdsf0ESlsZPVeKu6TYmdBAVw59/M40rlk1aEpoVyPkx/PmRcDBd4d8cxKmtlSFnw8Ns3D+NtH9V+2e1uge0cVwRncPJSZn7wyv8+TezSHwCUOwVGt0DXLW10nxPCja2jXAK9z9K6exxbJHlhOjJAUNE1NPeDUk2NoMhiAsnBNCtKCB/hf2HfYTFSUNFTw6Avgq+GqFeFQgEnnHPdCH47v1dVL+PbF2QPa42lduxppjmV4tpRl7+zywhPdOFXxZkwSktzxsynqX56t3aW9aIyQR6S9UYpKrtBNh8Vt7O9ew4kuPDgHYS46Wl9JohHxwmShVS9pxKS+h23lU3kMSrbXVV8fR6C5ctr6LNgD9haVBjUxkeZtX57AN0bBlmohoovUlNX39uu2P+opmu3/iT+kggxzerq4mSD9UBS2urNo67sVRfdKiCtFceJvWRcLB4WofwhXqakwb6UJXn2L57gAucvidNpI1lpY/MYu/8NhuRPRY0dHQBeotwtBJHWAjQ3eaiC4ES4/m8mh7VMSOEjmvjNbdAcHfjHQF7pY0BEvANnwtc0o5puk0/CQQtA5O6CLdsFpMZoHm4boDP9lH9GbKQtbMijBNKhVW/voT4uDR8KZ7YvVwXZ2HQjcTqoDDKFgK3UC+Fw5yodi7uHgNPX/k1CsuvWYSspQLsFrIobKofeY/YcjO310FgqItNVu7EFLfQmOHoJyYtjBk6aCz3tM48iY4+WPBjE1rdXT0hZ8PDFlH2C4eKqdS9wNDTYlttfCICA2YqKtTx4RQq4tXDJXrP2kh5kpMdUYHohopxguv35DpfzzapjRKna2lcsdLRBhA3n5gAaCxz5SudTkgAmOpvuD9ffRvdQEiog2K2obGzDwx6omF0e9HOvEMgfjSJlocCgSZeaqP1FzouDeA399dELlPdljdxAXDlK7r7YHLWNtVfV4p3tnzEovOBcMnwf8dmnEvc6QYMs7zbaFuTbHxDgO4Wi3jVr/+IyFjbKN/Vi9BjwlhqW30d6DSBLg69Xfz4IXdPGBGShWDlae1/Rl+8yhS30EgYmQeSiW5q8V71VYvoQIIw09Vod7/xNr34S4LQATPtPUgbo+Q7Tg9bGJJ2zlWbCUp6iNXZqtvZyaprJzGa4ySzLE2558+y7DiCmqqG0Tf3R5ytC4EZfeR7+qiaJ1Ksp3VpijK51VVUCoVPKPekzVc0XVFVFf3Z+0oKBg/Fq7Qc38Y5jwShuznZoVgbXMU4Y8j35Hw+Rx+wu2Swfk8B+XteYngdr0o5VdGHLnWN6vk4cnJS0RlPuKySLtm4kmhucMHdo7ls5tvA+qXOoxqKztPIdJa/uEa14UrexGUTKdkYMCSwxI3Z83/cDH2TnIri2Wt38tYbL/PW1mVOIgSCexuvWQi+e38X1W3bSMp6ncnKKrPxNNX7lYhLdOZf4s7m14l5zSrWbLoWuIt9mywA1N0NrJj2/xvNeb+2mdPTNlrSpivVjZQNpKdsQL0By77VFuDQtqrr8BEiny8h3SZMu7I58MHj1E0uIV721MIQdgQNHHLSKRYAD1tfnX2Kujm2uVjy9DCn8UESX2uSoOqUY6XQQRwqXlCPPazSQQi2NlyzdqeB8msURgeyNeMhyS+L7Xw1u6uYcyDZuovfVM/R0kDWOHhUh6b9wBe8mZ3MVrXHtamKN3fbxhzd9BBr7H2wqlZalhh16y+tdlxuUlgWwsZ5Dax4fgp5dqdwuYcs+gDdTx6mdL/6MzMVii/1w0oykJryK7v5TV9/ToZKyEk77qUxs/Y/SpZ6KMVPan9ylvLZ5mH4Q93IyXE+s+qgBU9w7z0p9gLbz4Yzn8INuvsgOiCApOUZFNV7fmRrQ9HvKOQlcn9bgMU9Y9/WqqkLE9NJUsf0VVC40/ODDizz2ftgbeYs5fDOG9KBCntSlQmpfvd3DvOdOXiIsBc3sHxPAcvle5oWhcVdrJgBVz92fqDHt23dQABMn8OjfIaXmpcJBHctP5jz43l/A5hhiOJmazvffTc+jlHBxEESwl0OQvtuaKXlLmGbHmJNTIv3joYVDIvc56/y3Dw/isUxmvcmck9VzX6r44rURotx9bsqfE/hu1Us6JxDgsuTuGJ58n//D+YFGvn4mQNCwAruO8RJXAKP8XWys0S6b9cJ4W4kO1mqvhYL8Xq3UfiqgQt9zWQXtYzMSiC4C4kjJ306eLyUP/rE5LxkYwuIyVlINDeoG3fxCvkFVSwIiKR4qGNkl69gXiDc/vKkEK+C+xJRgRUMA/kgBPufr6YhDloYZ6xtqJws4wvuEqQK1IN1yaQNy0oguNuQDgSQ2k0Vvuz5Uv7ooxw+oFyrDyEYRxZ3Ub7lDiddrUDE/5LdG1MIBK79x4u8fmoM8xMI7iKEgBUIBAKBQCAQTCiEhUAgEAgEAoFAMKEQAlYgEAgEAoFAMKEQAlYgEAgEAoFAMKH4YbA+zHIREBjCf/3338YxHYFAIBAIBAKBwDWiAisQCAQCgUAgmFAIASsQCAQCgUAgmFAIASsQCAQCgUAgmFD8cLwTuLtYxZT1awn1V6776fjwaW7d8NZ8QTy6ewYRlutezu+6zhVvTWfPgpuczG2lrnAuWy44fMg/bF/ENMzUFv2eY157B6ONgVWbfkmCP9w8V8AfvXlYQU49ZQv8eGvbNI56cRpn+ExNJD6ki7raFgadBkUQn6Cnp7aGNqdBbswT4WO90XOVqms9bj4dzIzUWIKsD3O94iq9w0tFIBAIBAJACFg7jnHr8DFuAcx/jYSFIV6er5dPdlUBoP/HeH4+x8vT2dDNH3MroTpDQ7yOHoZV/0TOg/7WGzfPse+o3YTTH2NjTgK93haco01RNF8uKGXLPmDMRWwwUyN86L3mQrwCQRHT8Om5OmzxSnAs8RHQWvvVMMfo4XrFV4AihIeZh0AgEAgEKoSAvS+5w1v7ypjRmE76/53kJOYCf9w7MmWbtmYHD0+7yed7f49Fl6atZeOqmxw8ZhzR2M4xcuxAAce8NLotk9iyLZ0/Hipj3T9P5qjTd+kFgicTRA/XXRZCgwkJhl63q6WOBIUEw0gEsEAgEAgEXkB4YO9D1vxzDfN0s/n3/+PNCvMCYqaB+Ztz2BRVy494UbyOByH8w6nZBCTV8NaCsZrTh/CIYAZbml0uxftMjSRo8Catw9avPvj4DB0lEAgEAsFY490K7PSdxDyRiKUu1XKa2vfftgmZtPJtYhL8rDfsYgJ+dYQoTlPbMIuEhZHyXS1v6tNEPbOUAPUth/nsY0bgcZ3/miof7e82eviwYFc8c9Sv6XwVn9iVGWdtTmahxhKt6XIdxf9PKaHdIT2mlb7qRPZozqV4XxVu8vneIziu7Fu9phbMtRQd+Bi1PPUPngZoC1Z7e4H/oh1sW6Q1r5QT5wo4P1n9jDrGPh8t764UY7jxJ47xmJNxtHOzvg4NC4RsJZi3vBsuaP1SEE3OM9kk6cxUHzlMUYPm63AfnxCCfQbp6XFVFvUhKMSHwe5ulxaDERMcS/LMYNWN4Xpc7b2yaHptg2b+lBmq6XqvfTVEFVogEAgE9yLeE7CywLtTe4TaE8cs96LmQ9NF6TLgV0eIimim6Y2n6QMUgZmwPpSGw3u4o4wVsZSEwBoa3niOO8pGq0d30meJWcWU9UsJcCUiZTGNKp9JK98m5okj+Jxfa8nJHSTR3U3TG2vlvKWcEn6FF0SsvNGr5Trv7ZZlwaoZrFuYTPZkqzCVxKtqE1hqONnZU8FGvAILOonXQWf70NYBScRpR6Wt+SUJ1FK092Mn8vQC57+ZS86Di9i2fa7mRjDjsd+z7xhue2CnLdpBjlmZUxKjD69ZQPnRC9hYB9LWsm1RkNNx/B/8JTk3z7Fv7wUUcWwdx/q9a4sK5JxlUa8lXgGYRFnDVObFDLCGEK97YYMipuEzeJNeV8o0OJKpPoO0uhS52jhs2vKJJTlVuRikVdkQ5hNBfEgnVRVXlUDCExKZkRDhemOZ44yEJ8QS5HJzmDT21MGrVFXIMT4RxCf8lBlCxAoEAsF9h5csBE8TtTASWk7TcEJVJrz4nFUoTt9JaAT0nX9OFoEAb9N0vhn8ZxIwXTWcuUYlaI/RZ+wH/2AesARE4uMPd3qanWYUkJ7IJHMNzap87pz4iA4zBMQ87dF3C03ws8v7GLcqmyFilm0FeBTQ/+NUIujl/H5VTevYdc63gM4QhB4AHyYHAS3d1g4GFb009YMuyE6oRvcTwGy+LhpJVgZpvt5bTsSrhPHY79lXVIsZfxJydrBt+w42rjIMf9qb59hnqfAa6ewFgqbg8Yg2QvQCDTdtx4kI9gezkb9aBLdjjD1H2wNB10q6po2gkaI33iAvfxSqr4qvtWWIzVshwdDTPCzv6mBrDVUVX1FVUUPrIFIltOIryz3LmIMt1NkIzkF6uwfBxw/P3MA++PrA4ICLZIMjmerTw3X1fIMttPbI31UgEAgE9xXeqcBOD+UBoK/BRTUyPJhJNNNhX/m8eIW+hUvxCQfcXtp/m47a+cQkrCUhYa3Gcv4qJgXCHWOltaoLSGL4cUINoUwCu8+cIH+3SQuPkLDQ/sN+Jk2HvlFsOTU5yAdaWh1aa11p6GXhQl8mA10MSmIuIoRZ9MoV2CCi/KClwnYxd03YbSBwhFkZOXbpJgmLFrFt+yJN64CFGx9zcO/HgLyp68Ffsi3YWSXTNeaemzbX5UcLNKwNI6elxwzTDPx4OhjlCqzk5612KdjHAp+pkUNv3vKJYOoIN2+5i/2SvoSnqrmH1pZB4iMSSY5A0zrg4+MD+DAj9aeOjw/64kOPd60SAoFAILiruGe6ENw58TS1J5CtC0tJeGapXeV2dOnz0HbgbTp7ByEiiIW7k1F0telynYNP9mh7IFtGY8LyI+wrx7L8n7M9Aed+WfmRowW0rPonch6cy6rpF+7a3rLGzl5gGgk5O0hQbt48x74hN58F0uLFlmQWX2uLa4+pT7Aen8Gb3PCyfpXEq8pSwPBbZQ221lDViuyplS0LgzftrAiih6xAIBAIJLwjYG908B3wgH4VOGto1NbDHRIJmg99aiE4fxYB9NPRNsy5Lz5H7UVkIStZEe7cOMad22uZZEhhEsdUgnYVAQY/uN3hvsh157uNIp29gzBHVVmVmRUTBP2tdAIQxM/m+Ghu7HKg0Y8+KvlJThyMyEYgo1RYZSEbkwblE6mXqwMGVs2dhvmbP3nULWFN2G0wTeW6FzO7qzZvKR0KhmlTcErPVaoqkIWsniCfFgYHYXBw0DKnS++vQCAQCO4LvOSBfZuO2n4mJawlar7qtryJC4Abldw2Q8DC11S+UcU7e3HEp19N0ocA3dyRx+lraAb/RCJXrrLGrHycUP9+Oso82Xjl5Ls5wbDqn9i2fQfbNj3muVcT6PprDyaCWLhZtSlp1QwWRkBLRRtdqtiAyW70PLowmToTzIjvHkY2LpgahD9melvl6+mPsXGNvSF0AQsf9Iebl2yrrzdu0QtMix2zPlRDInVPcBepswPdvk42cEWT88wz5Oc9w3oH24n7SIcSDCEYZa9oa6u3Vd4gkqb0RfmvzmHz1wiQLAPyHAA9zbQO+jA1wa5TgUAgEAjuS7xmIbhz4mlqu14jQe0VbTlN7ftKhHTq1Z1fHSHqmSPW59RdC9zFvl0XAM00vaHaaHXxOWrbdhLzhOyT1YrRaMUV+sQRQi25v235bg28TYy9D1ajC0JEsEYrJgW5U4DOcsPHYgGwtL6qaKO4YpBHd89g3W4lbpDLxVVcqFCue/nkfC/rFsarYmT6W/nLbrXQlXfMJ13jrQUhjqdwyZVUVXMrHt6+g4dBVZW0b7UFDm2rbnzMwalrJY+sOuqbP2ksxV/gj0VT2JizSBXv2o7giGNOFguA0+4BWhg5dqwWg00uCk5yymlknm4qXxY566vbSHsvoIPo+PlwfjjeE/cOJVAOHhiLZfbea1fpTY0lPlV+64M3qbvmR/xMVZBPBPEJ07DKWquPdbClhrrWQY0YcLQLDNJWWwMJiQ4+WNFKSyAQCO4/frBg8aq/AQTrHqCv/3v+67//Nt45CTxFFsJ99hYCZ620uMNb+0qZ151OulcPM5iISEI4yMFC4KyVVjd/PFTG5OoMVrg6iSsmi+fXzkHXfJ68dz0XsFJ1c9C1B1QWgneEoBMIBALBPY44ieteIMJXVcV1vN/Xab+cPIktRSn0RZdR9j9H2Uow0Zk+RXuJWr5v2wlBPpLXlMJ7Qxwju2TpHHSYqT49nOqrsnlriJO35M1bwz95SyAQCASCiYGowN4j6P8xnp/PsfcfDnK5uE5lNbBjwU1O5rZSVzjX0UpwP5O2lm2LHD2wN+0PWsipp2yBH29tm+b08IKYX6wnN8kfaOFU/vuc8Ua+AoFAIBDcZwgBKxAIBAKBQCCYUAgLgUAgEAgEAoFgQiEErEAgEAgEAoFgQvHDnq52AHq6hogUCAQCgUAgEAjuAv4/WsLz8NERScMAAAAASUVORK5CYII=;" vertex="1" parent="1">
                    <mxGeometry x="80" y="170" width="688" height="640" as="geometry"/>
                </mxCell>
            </root>
        </mxGraphModel>
    </diagram>
</mxfile>